<svg xmlns="http://www.w3.org/2000/svg" width="60" height="380" viewBox="0 0 60 380">
  <title>repelzen_BG</title>
  <g id="export_bg" data-name="export bg">
    <g id="path33453">
      <path d="M0,0H60V380H0Z" style="fill: #313131"/>
    </g>
  </g>
  <g id="EXPORT">
    <rect x="26.38211" y="196.24985" width="8.99292" height="28.50029" transform="translate(241.37857 179.62143) rotate(90)" style="fill: #cc4c4c"/>
    <rect x="25.82335" y="238.24985" width="8.99292" height="28.50029" transform="translate(282.81981 222.18019) rotate(90)" style="fill: #d8bb44"/>
    <rect x="25.82335" y="280.24985" width="8.99292" height="28.50029" transform="translate(324.81981 264.18019) rotate(90)" style="fill: #10a687"/>
    <rect x="25.82335" y="322.24985" width="8.99292" height="28.50029" transform="translate(366.81981 306.18019) rotate(90)" style="fill: #098eb7"/>
    <g>
      <path d="M38.19023,134.85168a16.53981,16.53981,0,1,0-16.416-.02036" style="fill: #313131"/>
      <path d="M38.19043,135.35156a.49983.49983,0,0,1-.248-.93408,16.04,16.04,0,1,0-15.91894-.01953.5.5,0,0,1-.498.86719,17.04017,17.04017,0,1,1,16.91309.0205A.49442.49442,0,0,1,38.19043,135.35156Z" style="fill: #afafaf"/>
    </g>
    <path d="M45,162.178h0a10.49151,10.49151,0,0,1,10.49151,10.49151v164.05a0,0,0,0,1,0,0h-20.983a0,0,0,0,1,0,0v-164.05A10.49151,10.49151,0,0,1,45,162.178Z" style="fill: #afafaf"/>
    <g>
      <g>
        <path d="M42.00293,176.13574h-.89941v-3.83789h-.49024V171.459h.49024v-1.78906h.89941V171.459h.87891v.83887h-.87891Z" style="fill: #313131"/>
        <path d="M42.00293,176.28564h-.89941a.15.15,0,0,1-.15039-.1499v-3.688h-.33985a.15.15,0,0,1-.15039-.1499V171.459a.15.15,0,0,1,.15039-.1499h.33985v-1.63916a.15.15,0,0,1,.15039-.1499h.89941a.15.15,0,0,1,.15039.1499v1.63916h.72852a.15.15,0,0,1,.15039.1499v.83887a.15.15,0,0,1-.15039.1499h-.72852v3.688A.15.15,0,0,1,42.00293,176.28564Zm-.749-.2998h.59863v-3.688a.15.15,0,0,1,.15039-.1499h.72852v-.53906h-.72852a.15.15,0,0,1-.15039-.14991v-1.63916h-.59863V171.459a.15.15,0,0,1-.15039.14991h-.33985v.53906h.33985a.15.15,0,0,1,.15039.1499Z" style="fill: #313131"/>
      </g>
      <g>
        <path d="M44.83008,172.21777h.03027a1.34516,1.34516,0,0,1,1.2793-.89941,1.39479,1.39479,0,0,1,.73926.23047l-.41016.81933a.785.785,0,0,0-.54883-.19043c-.96972,0-1.08984.9004-1.08984,1.65918v2.29883h-.89942V171.459h.89942Z" style="fill: #313131"/>
        <path d="M44.83008,176.28564h-.89942a.15.15,0,0,1-.15039-.1499V171.459a.15.15,0,0,1,.15039-.1499h.89942a.15.15,0,0,1,.15039.1499v.25733a1.46269,1.46269,0,0,1,1.15918-.54785,1.55413,1.55413,0,0,1,.82031.2539.14962.14962,0,0,1,.05274.19385l-.41016.81934a.14832.14832,0,0,1-.10547.07959.154.154,0,0,1-.127-.03418.6363.6363,0,0,0-.4502-.15332c-.65918,0-.93945.45166-.93945,1.50927v2.29883A.15.15,0,0,1,44.83008,176.28564Zm-.749-.2998h.59864v-2.14893c0-.49462,0-1.80908,1.24023-1.80908a.97777.97777,0,0,1,.49317.11719l.26855-.53711a1.20906,1.20906,0,0,0-.542-.13965A1.19306,1.19306,0,0,0,45,172.27344a.15067.15067,0,0,1-.13965.09424.17893.17893,0,0,1-.18066-.14991v-.60888h-.59864Z" style="fill: #313131"/>
      </g>
      <g>
        <path d="M48.28809,175.71582a.58008.58008,0,1,1-.58008-.5791A.587.587,0,0,1,48.28809,175.71582Z" style="fill: #313131"/>
        <path d="M47.708,176.4458a.73144.73144,0,0,1-.73047-.73.73047.73047,0,0,1,1.46094,0A.73145.73145,0,0,1,47.708,176.4458Zm0-1.15918a.435.435,0,0,0-.42969.4292.42969.42969,0,1,0,.85938,0A.435.435,0,0,0,47.708,175.28662Z" style="fill: #313131"/>
      </g>
      <g>
        <path d="M42.99316,183.20215a2.49855,2.49855,0,1,1-2.499-2.48926A2.45977,2.45977,0,0,1,42.99316,183.20215Zm-4.09765,0a1.59941,1.59941,0,1,0,1.59863-1.62988A1.6229,1.6229,0,0,0,38.89551,183.20215Z" style="fill: #313131"/>
        <path d="M40.49414,185.84033a2.63869,2.63869,0,1,1,2.64941-2.63818A2.615,2.615,0,0,1,40.49414,185.84033Zm0-4.97754a2.33889,2.33889,0,1,0,2.34863,2.33936A2.31878,2.31878,0,0,0,40.49414,180.86279Zm0,4.11817a1.77955,1.77955,0,1,1,1.75-1.77881A1.76637,1.76637,0,0,1,40.49414,184.981Zm0-3.25879a1.47981,1.47981,0,1,0,1.44922,1.48A1.46595,1.46595,0,0,0,40.49414,181.72217Z" style="fill: #313131"/>
      </g>
      <g>
        <path d="M45.1709,180.85352v2.58789c0,.75.18945,1.40918,1.0791,1.40918s1.0791-.65918,1.0791-1.40918v-2.58789h.89942V183.542c0,1.2793-.59961,2.14844-1.97852,2.14844s-1.97852-.86914-1.97852-2.14844v-2.68847Z" style="fill: #313131"/>
        <path d="M46.25,185.84033c-1.373,0-2.12891-.8164-2.12891-2.29834v-2.68847a.15.15,0,0,1,.15039-.14991h.89942a.15.15,0,0,1,.15039.14991v2.58789c0,.88281.27734,1.25927.92871,1.25927s.92871-.37646.92871-1.25927v-2.58789a.15.15,0,0,1,.15039-.14991h.89942a.15.15,0,0,1,.15039.14991V183.542C48.37891,185.02393,47.62305,185.84033,46.25,185.84033Zm-1.82812-4.83691V183.542c0,.91162.3164,1.99854,1.82812,1.99854s1.82813-1.08692,1.82813-1.99854v-2.53857h-.59864v2.438c0,.38574,0,1.55908-1.22949,1.55908s-1.22949-1.17334-1.22949-1.55908v-2.438Z" style="fill: #313131"/>
      </g>
      <g>
        <path d="M50.95605,185.53027h-.89941v-3.83789h-.49023v-.83886h.49023v-1.78907h.89941v1.78907H51.835v.83886h-.87891Z" style="fill: #313131"/>
        <path d="M50.95605,185.68018h-.89941a.15.15,0,0,1-.15039-.14991v-3.688h-.33984a.15.15,0,0,1-.15039-.14991v-.83886a.15.15,0,0,1,.15039-.14991h.33984v-1.63916a.15.15,0,0,1,.15039-.1499h.89941a.15.15,0,0,1,.1504.1499v1.63916H51.835a.15.15,0,0,1,.15039.14991v.83886a.15.15,0,0,1-.15039.14991h-.72851v3.688A.15005.15005,0,0,1,50.95605,185.68018Zm-.749-.29981h.59863v-3.688a.15.15,0,0,1,.15039-.1499h.72852v-.53906h-.72852a.15.15,0,0,1-.15039-.1499v-1.63916H50.207v1.63916a.15.15,0,0,1-.15039.1499H49.7168v.53906h.33984a.15.15,0,0,1,.15039.1499Z" style="fill: #313131"/>
      </g>
    </g>
    <g>
      <g>
        <path d="M42.0625,83.34473a.49937.49937,0,0,1-.44141-.26514l-.97265-1.82617a.5.5,0,1,1,.88281-.46973l.97266,1.82617a.49967.49967,0,0,1-.44141.73487Z" style="fill: #afafaf"/>
        <path d="M45.25293,81.29883a.4999.4999,0,0,1-.39063-.1875l-1.29394-1.61524a.50024.50024,0,0,1,.78125-.625l1.29394,1.61524a.50023.50023,0,0,1-.07812.70263A.49434.49434,0,0,1,45.25293,81.29883Z" style="fill: #afafaf"/>
        <path d="M48.04,78.71143a.49591.49591,0,0,1-.332-.12647l-1.5459-1.37549a.49977.49977,0,1,1,.66406-.74707l1.5459,1.37549a.49956.49956,0,0,1-.332.87354Z" style="fill: #afafaf"/>
        <path d="M50.39551,75.68018a.49594.49594,0,0,1-.27051-.07959l-1.73926-1.1211a.49992.49992,0,0,1,.541-.84082l1.73926,1.1211a.5.5,0,0,1-.27051.92041Z" style="fill: #afafaf"/>
        <path d="M52.29,72.29932a.49308.49308,0,0,1-.207-.04493l-1.88281-.85888a.5.5,0,1,1,.41406-.91016l1.88281.85889a.49993.49993,0,0,1-.207.95508Z" style="fill: #afafaf"/>
        <path d="M53.69336,68.65869a.48946.48946,0,0,1-.1416-.02051l-1.9834-.58789a.5001.5001,0,1,1,.28418-.959l1.9834.58789a.50012.50012,0,0,1-.14258.97949Z" style="fill: #afafaf"/>
        <path d="M54.57617,64.84668a.54187.54187,0,0,1-.07422-.00537l-2.04687-.30322a.49924.49924,0,0,1-.4209-.56788.5072.5072,0,0,1,.56738-.42138l2.04688.30322a.50005.50005,0,0,1-.07227.99463Z" style="fill: #afafaf"/>
        <path d="M54.89941,60.95215h0l-2.06836-.001a.5.5,0,0,1,0-1h0l2.06836.001a.5.5,0,0,1,0,1Z" style="fill: #afafaf"/>
        <path d="M52.56543,57.35889a.50006.50006,0,0,1-.082-.99317l2.04-.34179a.5001.5001,0,0,1,.166.98632l-2.04.3418A.49545.49545,0,0,1,52.56543,57.35889Z" style="fill: #afafaf"/>
        <path d="M51.72754,53.94678a.49985.49985,0,0,1-.16211-.97266l1.957-.67236a.49968.49968,0,1,1,.32422.94531l-1.957.67236A.49561.49561,0,0,1,51.72754,53.94678Z" style="fill: #afafaf"/>
        <path d="M50.36328,50.76123a.5003.5003,0,0,1-.23633-.94092l1.82325-.97656a.50026.50026,0,0,1,.47265.88184l-1.82324.97656A.50156.50156,0,0,1,50.36328,50.76123Z" style="fill: #afafaf"/>
        <path d="M48.51855,47.84814a.49981.49981,0,0,1-.30175-.89843l1.64843-1.24951a.49981.49981,0,1,1,.60352.79687l-1.64844,1.24951A.49725.49725,0,0,1,48.51855,47.84814Z" style="fill: #afafaf"/>
        <path d="M46.23926,45.25391a.5.5,0,0,1-.35938-.84766l1.43848-1.4873a.5.5,0,1,1,.71875.69531l-1.43848,1.4873A.4968.4968,0,0,1,46.23926,45.25391Z" style="fill: #afafaf"/>
        <path d="M43.5752,43.02539a.50036.50036,0,0,1-.40821-.78906l1.19629-1.6875a.50019.50019,0,0,1,.81641.57812l-1.19629,1.6875A.49943.49943,0,0,1,43.5752,43.02539Z" style="fill: #afafaf"/>
        <path d="M40.57324,41.21045a.50012.50012,0,0,1-.44726-.72412l.92773-1.84912a.50028.50028,0,0,1,.89453.44824l-.92773,1.84912A.50083.50083,0,0,1,40.57324,41.21045Z" style="fill: #afafaf"/>
        <path d="M37.28125,39.856a.50718.50718,0,0,1-.15332-.02393.50005.50005,0,0,1-.32227-.62939l.63477-1.96924a.49969.49969,0,1,1,.95117.30664l-.63476,1.96924A.50017.50017,0,0,1,37.28125,39.856Z" style="fill: #afafaf"/>
        <path d="M33.74805,39.00781a.47932.47932,0,0,1-.0791-.00635.50012.50012,0,0,1-.416-.57177l.32324-2.04346a.50028.50028,0,0,1,.98828.15625l-.32324,2.04346A.50061.50061,0,0,1,33.74805,39.00781Z" style="fill: #afafaf"/>
        <path d="M30.0166,38.71289h0a.50044.50044,0,0,1-.5-.50049l.002-2.06885a.49962.49962,0,0,1,.5-.49951h0a.50044.50044,0,0,1,.5.50049l-.002,2.06885A.4996.4996,0,0,1,30.0166,38.71289Z" style="fill: #afafaf"/>
        <path d="M26.28418,39.00244a.50059.50059,0,0,1-.49316-.42236l-.32032-2.044a.5002.5002,0,0,1,.98828-.15527l.32032,2.04394a.50013.50013,0,0,1-.417.57178A.52529.52529,0,0,1,26.28418,39.00244Z" style="fill: #afafaf"/>
        <path d="M22.749,39.8457a.50091.50091,0,0,1-.47656-.34716l-.63183-1.96973a.50047.50047,0,0,1,.95312-.30567l.63184,1.96973a.50078.50078,0,0,1-.47657.65283Z" style="fill: #afafaf"/>
        <path d="M19.45508,41.19629a.50042.50042,0,0,1-.44727-.27637l-.9248-1.85058a.50006.50006,0,1,1,.89453-.44727l.9248,1.85059a.5.5,0,0,1-.44726.72363Z" style="fill: #afafaf"/>
        <path d="M16.4502,43.00732a.5.5,0,0,1-.40821-.21142l-1.19433-1.68945a.4999.4999,0,1,1,.8164-.57715l1.19434,1.68945a.49972.49972,0,0,1-.4082.78857Z" style="fill: #afafaf"/>
        <path d="M13.78223,45.23242a.50114.50114,0,0,1-.36035-.15283l-1.43555-1.48926a.50038.50038,0,0,1,.7207-.69433l1.43555,1.48925a.5005.5005,0,0,1-.36035.84717Z" style="fill: #afafaf"/>
        <path d="M11.5,47.82373a.49948.49948,0,0,1-.30273-.102l-1.64649-1.252a.5.5,0,1,1,.60547-.7959l1.64648,1.252a.4998.4998,0,0,1-.30273.89795Z" style="fill: #afafaf"/>
        <path d="M9.65137,50.73389a.49653.49653,0,0,1-.23633-.05957l-1.82227-.9795a.49983.49983,0,1,1,.47266-.88086l1.82227.9795a.49987.49987,0,0,1-.23633.94043Z" style="fill: #afafaf"/>
        <path d="M8.28223,53.917a.50158.50158,0,0,1-.16309-.02734l-1.956-.67481a.5.5,0,1,1,.32617-.94531l1.956.67481a.5.5,0,0,1-.16308.97265Z" style="fill: #afafaf"/>
        <path d="M7.43945,57.32764a.54043.54043,0,0,1-.084-.00684l-2.04-.34473a.50071.50071,0,0,1-.41016-.57666.51052.51052,0,0,1,.57618-.40966l2.04.34472a.5.5,0,0,1-.082.99317Z" style="fill: #afafaf"/>
        <path d="M7.169,60.91943H7.168L5.09863,60.917a.5.5,0,0,1,.001-1h.001l2.06933.00244a.5.5,0,0,1-.001,1Z" style="fill: #afafaf"/>
        <path d="M5.41113,64.81543a.50011.50011,0,0,1-.07031-.99512l2.04785-.29345a.50824.50824,0,0,1,.56641.42431.50008.50008,0,0,1-.42383.56592l-2.04785.29346A.51468.51468,0,0,1,5.41113,64.81543Z" style="fill: #afafaf"/>
        <path d="M6.27148,68.63525a.5.5,0,0,1-.13867-.98046l1.98731-.57325a.50008.50008,0,1,1,.27734.96094l-1.9873.57324A.503.503,0,0,1,6.27148,68.63525Z" style="fill: #afafaf"/>
        <path d="M7.64746,72.2876a.5.5,0,0,1-.2041-.95655L9.333,70.4873a.50009.50009,0,1,1,.4082.91309l-1.88965.84375A.49672.49672,0,0,1,7.64746,72.2876Z" style="fill: #afafaf"/>
        <path d="M9.51465,75.68164a.50016.50016,0,0,1-.26758-.92236l1.74707-1.10791a.5.5,0,0,1,.53516.84472L9.78223,75.604A.49712.49712,0,0,1,9.51465,75.68164Z" style="fill: #afafaf"/>
        <path d="M11.84668,78.72607a.49977.49977,0,0,1-.33008-.87548l1.55469-1.36621a.49994.49994,0,1,1,.66016.751l-1.55469,1.36621A.49808.49808,0,0,1,11.84668,78.72607Z" style="fill: #afafaf"/>
        <path d="M14.62012,81.32471a.49526.49526,0,0,1-.31348-.11084.50068.50068,0,0,1-.07617-.70313L15.5293,78.8999a.5004.5004,0,0,1,.77929.62793l-1.29882,1.61084A.50094.50094,0,0,1,14.62012,81.32471Z" style="fill: #afafaf"/>
        <path d="M17.80957,83.37744a.49965.49965,0,0,1-.44141-.73486l.97266-1.82617a.5.5,0,1,1,.88281.46972L18.251,83.1123A.49937.49937,0,0,1,17.80957,83.37744Z" style="fill: #afafaf"/>
      </g>
      <path d="M41.30664,81.31641a.49984.49984,0,0,1-.248-.93409,22.33343,22.33343,0,1,0-22.165-.02783.5.5,0,1,1-.498.86719,23.33271,23.33271,0,1,1,23.15918.02881A.49452.49452,0,0,1,41.30664,81.31641Z" style="fill: #afafaf"/>
    </g>
    <g>
      <g>
        <path d="M20.918,144.06738a.69213.69213,0,0,0-.59961-.41015.48542.48542,0,0,0-.49023.46c0,.40918.54.58984,1.08984.83886.54883.25,1.0791.58985,1.0791,1.33008A1.56971,1.56971,0,0,1,20.3877,147.835a1.72352,1.72352,0,0,1-1.61915-1.0498l.76954-.34961a.93035.93035,0,0,0,.84961.59961.671.671,0,0,0,.71-.65918.56443.56443,0,0,0-.33008-.50977l-.87988-.46973c-.51954-.28027-.89942-.54-.89942-1.17968a1.36546,1.36546,0,0,1,1.37988-1.35938,1.39335,1.39335,0,0,1,1.2793.81934Z" style="fill: #afafaf"/>
        <path d="M20.3877,148.03516a1.91133,1.91133,0,0,1-1.80665-1.1792.20055.20055,0,0,1,.1045-.25293l.76953-.34961a.19879.19879,0,0,1,.25879.08642c.19629.36084.3789.49512.67383.49512a.4726.4726,0,0,0,.50976-.459c0-.147-.04687-.21436-.24023-.34327l-.86328-.46c-.55079-.29687-1.00586-.60351-1.00586-1.356a1.59139,1.59139,0,0,1,3.03906-.62842.20093.20093,0,0,1-.085.26465l-.72949.39062a.20226.20226,0,0,1-.15723.01367.19978.19978,0,0,1-.11817-.10351.49319.49319,0,0,0-.41894-.29639.28788.28788,0,0,0-.29.25977c0,.229.35742.38623.77148.56787l.2002.08887a1.65417,1.65417,0,0,1,1.19727,1.5122A1.76135,1.76135,0,0,1,20.3877,148.03516Zm-1.35254-1.15137a1.56059,1.56059,0,0,0,1.35254.751,1.36525,1.36525,0,0,0,1.40918-1.34864c0-.58935-.38477-.88525-.96192-1.148l-.19531-.08691c-.52051-.228-1.01172-.44385-1.01172-.93408a.685.685,0,0,1,.69043-.66016.86082.86082,0,0,1,.66992.3457l.38379-.20507a1.18812,1.18812,0,0,0-2.18359.61914c0,.49218.24511.70752.79394,1.0039l.87891.46924a.76841.76841,0,0,1,.43652.686.86668.86668,0,0,1-.91015.85937,1.06043,1.06043,0,0,1-.93067-.54346Z" style="fill: #afafaf"/>
      </g>
      <g>
        <path d="M23.915,145.48633a1.47145,1.47145,0,0,0,1.40918,1.54883,1.53084,1.53084,0,0,0,1.39941-.90918l.75977.42968a2.43377,2.43377,0,0,1-2.16895,1.2793,2.2736,2.2736,0,0,1-2.29882-2.459,2.23567,2.23567,0,0,1,2.27929-2.51856c1.48828,0,2.18848,1.09961,2.18848,2.48926v.13965Zm2.66894-.67969a1.263,1.263,0,0,0-1.28906-1.16894,1.33833,1.33833,0,0,0-1.33008,1.16894Z" style="fill: #afafaf"/>
        <path d="M25.31445,148.03516a2.47092,2.47092,0,0,1-2.499-2.65918,2.4185,2.4185,0,0,1,2.47949-2.71875c1.47363,0,2.38867,1.03076,2.38867,2.68945v.13965a.20046.20046,0,0,1-.20019.20019H24.13086a1.23721,1.23721,0,0,0,1.19336,1.14844,1.34072,1.34072,0,0,0,1.22851-.813.19994.19994,0,0,1,.26954-.07031l.75976.42969a.2005.2005,0,0,1,.07715.26953A2.62633,2.62633,0,0,1,25.31445,148.03516Zm-.01953-4.97754a2.02832,2.02832,0,0,0-2.0791,2.31836,2.06619,2.06619,0,0,0,2.09863,2.25879,2.23141,2.23141,0,0,0,1.89258-1.00586l-.417-.23536a1.6481,1.6481,0,0,1-1.46582.8418,1.66769,1.66769,0,0,1-1.60938-1.74658.20538.20538,0,0,1,.05762-.14307.2011.2011,0,0,1,.14258-.05957H27.2832C27.2627,143.88916,26.52246,143.05762,25.29492,143.05762Zm1.28906,1.94922H23.96484a.20044.20044,0,0,1-.19726-.23291,1.54483,1.54483,0,0,1,1.52734-1.33643,1.46284,1.46284,0,0,1,1.48633,1.33789.19722.19722,0,0,1-.04492.16113A.20093.20093,0,0,1,26.584,145.00684Zm-2.3623-.40039H26.333a1.02277,1.02277,0,0,0-1.03809-.76856A1.11682,1.11682,0,0,0,24.22168,144.60645Z" style="fill: #afafaf"/>
      </g>
      <g>
        <path d="M29.65039,143.627h.01953a1.5986,1.5986,0,0,1,1.40918-.76953c1.31934,0,1.65918.88965,1.65918,2.0293v2.78808h-.89941v-2.67871c0-.79882-.11035-1.33886-1.0293-1.33886-1.15918,0-1.15918,1.01953-1.15918,1.86914v2.14843H28.751v-4.67675h.89941Z" style="fill: #afafaf"/>
        <path d="M32.73828,147.875h-.89941a.20047.20047,0,0,1-.2002-.2002v-2.67871c0-.84033-.125-1.13867-.8291-1.13867-.89258,0-.959.66065-.959,1.66895v2.14843a.20047.20047,0,0,1-.2002.2002H28.751a.20047.20047,0,0,1-.2002-.2002v-4.67675a.20048.20048,0,0,1,.2002-.2002h.89941a.20048.20048,0,0,1,.2002.2002v.09961a1.87963,1.87963,0,0,1,1.22851-.44043c1.251,0,1.85938.72949,1.85938,2.22949v2.78808A.20047.20047,0,0,1,32.73828,147.875Zm-.69922-.40039h.499v-2.58789c0-1.28223-.43653-1.8291-1.459-1.8291a1.39276,1.39276,0,0,0-1.23437.66748.222.222,0,0,1-.39453-.09815v-.42871h-.499v4.27637h.499v-1.94824c0-.82373,0-2.06934,1.35937-2.06934,1.13477,0,1.22949.79443,1.22949,1.53906Z" style="fill: #afafaf"/>
      </g>
      <g>
        <path d="M36.35547,144.06738a.69213.69213,0,0,0-.59961-.41015.48542.48542,0,0,0-.49023.46c0,.40918.54.58984,1.08984.83886.54883.25,1.0791.58985,1.0791,1.33008A1.56971,1.56971,0,0,1,35.8252,147.835a1.72352,1.72352,0,0,1-1.61915-1.0498l.76954-.34961a.93035.93035,0,0,0,.84961.59961.671.671,0,0,0,.71-.65918.56443.56443,0,0,0-.33008-.50977l-.87988-.46973c-.51954-.28027-.89942-.54-.89942-1.17968a1.36546,1.36546,0,0,1,1.37988-1.35938,1.39335,1.39335,0,0,1,1.2793.81934Z" style="fill: #afafaf"/>
        <path d="M35.8252,148.03516a1.91133,1.91133,0,0,1-1.80665-1.1792.20055.20055,0,0,1,.1045-.25293l.76953-.34961a.19848.19848,0,0,1,.25879.08642c.19629.36084.3789.49512.67383.49512a.4726.4726,0,0,0,.50976-.459c0-.147-.04687-.21436-.24023-.34327l-.86328-.46c-.55079-.29687-1.00586-.60351-1.00586-1.356a1.59139,1.59139,0,0,1,3.03906-.62842.20093.20093,0,0,1-.085.26465l-.72949.39062a.20226.20226,0,0,1-.15723.01367.19978.19978,0,0,1-.11817-.10351.49319.49319,0,0,0-.41894-.29639.28788.28788,0,0,0-.29.25977c0,.229.35742.38623.77148.56787l.2002.08887a1.65417,1.65417,0,0,1,1.19727,1.5122A1.76135,1.76135,0,0,1,35.8252,148.03516Zm-1.35254-1.15137a1.56059,1.56059,0,0,0,1.35254.751,1.36525,1.36525,0,0,0,1.40918-1.34864c0-.58935-.38477-.88525-.96192-1.148l-.19531-.08691c-.52051-.228-1.01172-.44385-1.01172-.93408a.685.685,0,0,1,.69043-.66016.86082.86082,0,0,1,.66992.3457l.38379-.20507a1.18812,1.18812,0,0,0-2.18359.61914c0,.49218.24511.70752.79394,1.0039l.87891.46924a.76841.76841,0,0,1,.43652.686.86668.86668,0,0,1-.91015.85937,1.06043,1.06043,0,0,1-.93067-.54346Z" style="fill: #afafaf"/>
      </g>
      <g>
        <path d="M40.22266,147.25488a.58008.58008,0,1,1-.58008-.5791A.587.587,0,0,1,40.22266,147.25488Z" style="fill: #afafaf"/>
        <path d="M39.64258,148.03516a.78157.78157,0,0,1-.78028-.78028.78028.78028,0,0,1,1.56055,0A.78156.78156,0,0,1,39.64258,148.03516Zm0-1.15918a.38426.38426,0,0,0-.37988.3789.37988.37988,0,1,0,.75976,0A.38427.38427,0,0,0,39.64258,146.876Z" style="fill: #afafaf"/>
      </g>
    </g>
    <g>
      <g>
        <path d="M5.01074,92.00293h.01953a1.91839,1.91839,0,0,1,1.62989-.919,2.50477,2.50477,0,0,1-.04,4.97657,1.93191,1.93191,0,0,1-1.58985-.88867H5.01074v3.4082H4.11133V91.22363h.89941ZM7.959,93.5625a1.535,1.535,0,0,0-1.51953-1.67871,1.70394,1.70394,0,0,0,0,3.37793A1.54167,1.54167,0,0,0,7.959,93.5625Z" style="fill: #afafaf"/>
        <path d="M5.01074,98.78027H4.11133a.20047.20047,0,0,1-.2002-.20019V91.22363a.20047.20047,0,0,1,.2002-.20019h.89941a.20047.20047,0,0,1,.2002.20019v.249a2.0519,2.0519,0,0,1,1.44922-.58887,2.7036,2.7036,0,0,1-.04,5.37695,2.04959,2.04959,0,0,1-1.40918-.5708v2.89014A.20047.20047,0,0,1,5.01074,98.78027Zm-.69922-.40039h.499v-3.208a.20046.20046,0,0,1,.20019-.2002.23593.23593,0,0,1,.18457.0874,1.72747,1.72747,0,0,0,1.42481.80127,2.30621,2.30621,0,0,0,.04-4.57617,1.71908,1.71908,0,0,0-1.46289.8291.22231.22231,0,0,1-.38672-.11035v-.5791h-.499Zm2.12793-2.918a1.90235,1.90235,0,0,1,0-3.77832,1.8975,1.8975,0,0,1,0,3.77832Zm0-3.37793a1.50609,1.50609,0,0,0,0,2.97754,1.49964,1.49964,0,0,0,0-2.97754Z" style="fill: #afafaf"/>
      </g>
      <g>
        <path d="M11.09668,91.22363V93.8125c0,.749.18945,1.40918,1.0791,1.40918s1.0791-.66016,1.0791-1.40918V91.22363h.89942v2.68848c0,1.2793-.59961,2.14844-1.97852,2.14844s-1.97851-.86914-1.97851-2.14844V91.22363Z" style="fill: #afafaf"/>
        <path d="M12.17578,96.26074a2.06423,2.06423,0,0,1-2.17871-2.34863V91.22363a.20046.20046,0,0,1,.2002-.20019h.89941a.20047.20047,0,0,1,.2002.20019V93.8125c0,.85889.25488,1.209.8789,1.209s.87891-.35009.87891-1.209V91.22363a.20046.20046,0,0,1,.20019-.20019h.89942a.20046.20046,0,0,1,.20019.20019v2.68848A2.06423,2.06423,0,0,1,12.17578,96.26074Zm-1.77832-4.83691v2.48828c0,.88867.30859,1.94824,1.77832,1.94824s1.77832-1.05957,1.77832-1.94824V91.42383h-.499V93.8125c0,.39795,0,1.60938-1.2793,1.60938s-1.2793-1.21143-1.2793-1.60938V91.42383Z" style="fill: #afafaf"/>
      </g>
      <g>
        <path d="M16.792,95.90137H15.8916V87.22559H16.792Z" style="fill: #afafaf"/>
        <path d="M16.792,96.10156H15.8916a.20046.20046,0,0,1-.20019-.20019V87.22559a.20046.20046,0,0,1,.20019-.2002H16.792a.20047.20047,0,0,1,.2002.2002v8.67578A.20047.20047,0,0,1,16.792,96.10156Zm-.70019-.40039h.5V87.42578h-.5Z" style="fill: #afafaf"/>
      </g>
      <g>
        <path d="M20.44922,92.293a.69289.69289,0,0,0-.59961-.40918.4846.4846,0,0,0-.49023.459c0,.41016.54.58985,1.08984.83985.54883.25,1.0791.58984,1.0791,1.3291A1.56971,1.56971,0,0,1,19.919,96.06055a1.72414,1.72414,0,0,1-1.61915-1.04883l.76954-.34961a.93035.93035,0,0,0,.84961.59961.67112.67112,0,0,0,.71-.66016.56546.56546,0,0,0-.33008-.50976l-.87988-.46973c-.51954-.2793-.89942-.53906-.89942-1.17871A1.36546,1.36546,0,0,1,19.89941,91.084a1.39175,1.39175,0,0,1,1.2793.81934Z" style="fill: #afafaf"/>
        <path d="M19.919,96.26074a1.90891,1.90891,0,0,1-1.80567-1.17822.19917.19917,0,0,1,.10352-.25293l.76953-.34961a.19987.19987,0,0,1,.25879.08643c.19629.36084.3789.49511.67383.49511a.47276.47276,0,0,0,.50976-.46c0-.146-.04687-.21386-.24121-.34375l-.8623-.45947c-.53028-.28467-1.00586-.60254-1.00586-1.355a1.59126,1.59126,0,0,1,3.03906-.62793.19982.19982,0,0,1-.08594.26416l-.72949.38965a.19466.19466,0,0,1-.15625.01367.201.201,0,0,1-.11817-.10352.493.493,0,0,0-.41894-.29541.28744.28744,0,0,0-.29.25879c0,.229.35547.38526.76758.5669l.20508.09082a1.65379,1.65379,0,0,1,1.19629,1.51123A1.76134,1.76134,0,0,1,19.919,96.26074Zm-1.35254-1.15039a1.562,1.562,0,0,0,1.35254.75,1.36524,1.36524,0,0,0,1.40918-1.34863c0-.58838-.38477-.88428-.96192-1.147l-.20019-.08936c-.51758-.22754-1.00684-.44287-1.00684-.93262a.68448.68448,0,0,1,.69043-.65918.86176.86176,0,0,1,.66992.34522l.38379-.20508a1.18833,1.18833,0,0,0-2.18359.61963c0,.49268.24511.70752.79394,1.00244l.87891.46973a.77188.77188,0,0,1,.43652.686.86716.86716,0,0,1-.91015.86035,1.06043,1.06043,0,0,1-.93067-.54345Z" style="fill: #afafaf"/>
      </g>
      <g>
        <path d="M23.44531,93.71191a1.47233,1.47233,0,0,0,1.40918,1.54981,1.53016,1.53016,0,0,0,1.39942-.91016l.75976.42969a2.43376,2.43376,0,0,1-2.16894,1.2793,2.27331,2.27331,0,0,1-2.29883-2.458A2.23522,2.23522,0,0,1,24.8252,91.084c1.48828,0,2.18847,1.09961,2.18847,2.48829v.13964Zm2.669-.67968a1.263,1.263,0,0,0-1.28906-1.16895,1.33914,1.33914,0,0,0-1.33008,1.16895Z" style="fill: #afafaf"/>
        <path d="M24.84473,96.26074a2.47037,2.47037,0,0,1-2.499-2.6582,2.4185,2.4185,0,0,1,2.4795-2.71875c1.47363,0,2.38867,1.03027,2.38867,2.68848v.13964a.20047.20047,0,0,1-.2002.2002H23.66113a1.237,1.237,0,0,0,1.19336,1.14941,1.33941,1.33941,0,0,0,1.22852-.81347.19894.19894,0,0,1,.26953-.0708l.75976.42968a.2005.2005,0,0,1,.07715.26953A2.62633,2.62633,0,0,1,24.84473,96.26074Zm-.01953-4.97656a2.02833,2.02833,0,0,0-2.07911,2.31836,2.06615,2.06615,0,0,0,2.09864,2.25781,2.2314,2.2314,0,0,0,1.89257-1.00586l-.416-.23535a1.64951,1.64951,0,0,1-1.4668.84277,1.66823,1.66823,0,0,1-1.60937-1.74755.2054.2054,0,0,1,.05761-.14307.20106.20106,0,0,1,.14258-.05957h3.36817C26.793,92.11523,26.05273,91.28418,24.8252,91.28418Zm1.28906,1.94824H23.49512a.20044.20044,0,0,1-.19727-.23291,1.54483,1.54483,0,0,1,1.52735-1.33642A1.46283,1.46283,0,0,1,26.31152,93.001a.19719.19719,0,0,1-.04492.16113A.20093.20093,0,0,1,26.11426,93.23242ZM23.752,92.832h2.11133a1.02275,1.02275,0,0,0-1.03808-.76855A1.11683,1.11683,0,0,0,23.752,92.832Z" style="fill: #afafaf"/>
      </g>
      <g>
        <path d="M33.26758,94.20215l1.3789-3.23828,1.36915,3.23828L37.375,91.22363h1.01953l-2.3789,4.83692-1.36915-3.12793-1.3789,3.12793-2.37891-4.83692H31.9082Z" style="fill: #afafaf"/>
        <path d="M33.26758,96.26074a.20114.20114,0,0,1-.17969-.11181L30.709,91.312a.20048.20048,0,0,1,.17969-.28857H31.9082a.19959.19959,0,0,1,.18164.11719l1.17188,2.56591,1.20117-2.8208a.199.199,0,0,1,.18359-.12207h0a.20161.20161,0,0,1,.18457.12256l1.19141,2.81885,1.1709-2.56445a.19961.19961,0,0,1,.18164-.11719h1.01953a.20048.20048,0,0,1,.17969.28857l-2.37891,4.83692a.21272.21272,0,0,1-.18457.11132.20016.20016,0,0,1-.17871-.11962l-1.18652-2.71094L33.4502,96.14111a.19989.19989,0,0,1-.17872.11963ZM31.21,91.42383l2.04785,4.16357,1.20606-2.73535a.19876.19876,0,0,1,.18261-.11963h0a.2014.2014,0,0,1,.1836.12012l1.19629,2.7334,2.04687-4.16211h-.56933l-1.30664,2.86133a.1996.1996,0,0,1-.18164.11718H36.0127a.202.202,0,0,1-.18165-.12207l-1.18554-2.8042-1.19434,2.8042a.19879.19879,0,0,1-.18066.12207.20267.20267,0,0,1-.18457-.11718L31.7793,91.42383Z" style="fill: #afafaf"/>
      </g>
      <g>
        <path d="M40.61133,89.085a.61972.61972,0,0,1-1.23926,0,.61971.61971,0,1,1,1.23926,0Zm-.16992,6.81641H39.542V91.22363h.89942Z" style="fill: #afafaf"/>
        <path d="M40.44141,96.10156H39.542a.20046.20046,0,0,1-.20019-.20019V91.22363a.20046.20046,0,0,1,.20019-.20019h.89942a.20046.20046,0,0,1,.20019.20019v4.67774A.20046.20046,0,0,1,40.44141,96.10156Zm-.69922-.40039h.499V91.42383h-.499Zm.25-5.80664a.8161.8161,0,0,1-.82031-.80957.81988.81988,0,1,1,1.63964,0A.81525.81525,0,0,1,39.99219,89.89453Zm0-1.23926a.4255.4255,0,0,0-.41992.42969.41956.41956,0,0,0,.83886,0A.42469.42469,0,0,0,39.99219,88.65527Z" style="fill: #afafaf"/>
      </g>
      <g>
        <path d="M45.86816,95.17188h-.01953a1.93151,1.93151,0,0,1-1.58886.88867,2.50465,2.50465,0,0,1-.04-4.97657,1.918,1.918,0,0,1,1.6289.919h.01953V87.22559h.89942v8.67578h-.89942ZM45.918,93.5625a1.53428,1.53428,0,0,0-1.51856-1.67871A1.69852,1.69852,0,1,0,45.918,93.5625Z" style="fill: #afafaf"/>
        <path d="M44.25977,96.26074a2.70349,2.70349,0,0,1-.04-5.37695,2.04964,2.04964,0,0,1,1.44824.58887V87.22559a.20046.20046,0,0,1,.20019-.2002h.89942a.20046.20046,0,0,1,.20019.2002v8.67578a.20046.20046,0,0,1-.20019.20019h-.89942a.20046.20046,0,0,1-.20019-.20019v-.21143A2.04726,2.04726,0,0,1,44.25977,96.26074Zm-.04-4.97656a2.30607,2.30607,0,0,0,.04,4.57617,1.72712,1.72712,0,0,0,1.42382-.80127.22215.22215,0,0,1,.38477.1128v.52929h.499V87.42578h-.499v4.57715a.20047.20047,0,0,1-.2002.2002.23614.23614,0,0,1-.18652-.08985A1.71864,1.71864,0,0,0,44.21973,91.28418Zm.17968,4.17773a1.90222,1.90222,0,0,1,0-3.77832,1.8976,1.8976,0,0,1,0,3.77832Zm0-3.37793a1.49978,1.49978,0,1,0,1.31836,1.47852A1.33717,1.33717,0,0,0,44.39941,92.084Z" style="fill: #afafaf"/>
      </g>
      <g>
        <path d="M49.46484,95.90137h-.89941V92.06348H48.0752v-.83985h.49023V89.43457h.89941v1.78906h.87891v.83985h-.87891Z" style="fill: #afafaf"/>
        <path d="M49.46484,96.10156h-.89941a.20047.20047,0,0,1-.2002-.20019v-3.6377h-.29a.20046.20046,0,0,1-.2002-.20019v-.83985a.20046.20046,0,0,1,.2002-.20019h.29V89.43457a.20047.20047,0,0,1,.2002-.20019h.89941a.20046.20046,0,0,1,.2002.20019v1.58887h.67871a.20047.20047,0,0,1,.2002.20019v.83985a.20047.20047,0,0,1-.2002.20019H49.665v3.6377A.20046.20046,0,0,1,49.46484,96.10156Zm-.69921-.40039h.499V92.06348a.20047.20047,0,0,1,.20019-.2002h.67871v-.43945h-.67871a.20047.20047,0,0,1-.20019-.2002V89.63477h-.499v1.58886a.20048.20048,0,0,1-.2002.2002h-.29v.43945h.29a.20048.20048,0,0,1,.2002.2002Z" style="fill: #afafaf"/>
      </g>
      <g>
        <path d="M52.2334,87.22559v4.62793h.01953a1.59653,1.59653,0,0,1,1.40918-.76954c1.31934,0,1.65918.88965,1.65918,2.02832v2.78907h-.89941V93.22266c0-.79981-.11036-1.33887-1.0293-1.33887-1.15918,0-1.15918,1.01855-1.15918,1.86816v2.14942H51.334V87.22559Z" style="fill: #afafaf"/>
        <path d="M55.32129,96.10156h-.89941a.20046.20046,0,0,1-.2002-.20019V93.22266c0-.84034-.125-1.13868-.8291-1.13868-.89258,0-.959.66016-.959,1.668v2.14942a.20046.20046,0,0,1-.20019.20019H51.334a.20046.20046,0,0,1-.20019-.20019V87.22559a.20046.20046,0,0,1,.20019-.2002h.89942a.20046.20046,0,0,1,.20019.2002v4.09814a1.87929,1.87929,0,0,1,1.22852-.43994c1.251,0,1.85937.729,1.85937,2.22851v2.78907A.20046.20046,0,0,1,55.32129,96.10156Zm-.69922-.40039h.499V93.1123c0-1.28173-.43652-1.82812-1.459-1.82812a1.39226,1.39226,0,0,0-1.23438.667.22178.22178,0,0,1-.39453-.09765V87.42578h-.499v8.27539h.499V93.75195c0-.82373,0-2.06836,1.35938-2.06836,1.13476,0,1.22949.76026,1.22949,1.53907Z" style="fill: #afafaf"/>
      </g>
    </g>
    <g>
      <g>
        <path d="M14.13086,172.78809a1.7142,1.7142,0,0,0-1.33887-.62989,1.61763,1.61763,0,0,0-1.55957,1.63868,1.58026,1.58026,0,0,0,1.61914,1.65917,1.681,1.681,0,0,0,1.2793-.61914v1.14942a2.61458,2.61458,0,0,1-1.28906.30957,2.48929,2.48929,0,1,1,.0498-4.97754,2.5323,2.5323,0,0,1,1.23926.31055Z" style="fill: #afafaf"/>
        <path d="M12.8418,176.49609a2.68945,2.68945,0,1,1,.0498-5.37793,2.73262,2.73262,0,0,1,1.33985.33789.20053.20053,0,0,1,.0996.17286v1.15918a.20025.20025,0,0,1-.35058.13183,1.51244,1.51244,0,0,0-1.18848-.56152,1.41906,1.41906,0,0,0-1.35937,1.43848,1.37667,1.37667,0,0,0,1.41894,1.459,1.47043,1.47043,0,0,0,1.12989-.55225.20025.20025,0,0,1,.3496.1333v1.14942a.20133.20133,0,0,1-.10546.17627A2.814,2.814,0,0,1,12.8418,176.49609Zm.0498-4.97754a2.28714,2.28714,0,0,0-2.3584,2.31836,2.25957,2.25957,0,0,0,2.3086,2.25879,2.4489,2.4489,0,0,0,1.08886-.23193v-.57129a1.81053,1.81053,0,0,1-2.89843-1.4956A1.82474,1.82474,0,0,1,12.792,171.958a1.86554,1.86554,0,0,1,1.13867.37207v-.582A2.38449,2.38449,0,0,0,12.8916,171.51855Z" style="fill: #afafaf"/>
      </g>
      <g>
        <path d="M17.19824,174.377l1.34961-2.918h1.00879l-2.3584,4.83692L14.84961,171.459h1.00977Z" style="fill: #afafaf"/>
        <path d="M17.19824,176.49609h0a.19985.19985,0,0,1-.17969-.11279l-2.34863-4.83691a.19974.19974,0,0,1,.17969-.2876h1.00977a.2.2,0,0,1,.18164.1167l1.1582,2.52344,1.167-2.52393a.20057.20057,0,0,1,.18164-.11621h1.00879a.2.2,0,0,1,.17969.28809l-2.3584,4.83691A.2005.2005,0,0,1,17.19824,176.49609ZM15.169,171.65918l2.02929,4.17969,2.03809-4.17969h-.56055l-1.2959,2.80176a.20056.20056,0,0,1-.18164.11621h0a.2008.2008,0,0,1-.18164-.1167l-1.28515-2.80127Z" style="fill: #afafaf"/>
      </g>
      <g>
        <path d="M12.50586,178.71387a.6197.6197,0,0,1-1.23926,0,.6197.6197,0,1,1,1.23926,0Zm-.16992,6.8164h-.89942v-4.67675h.89942Z" style="fill: #afafaf"/>
        <path d="M12.33594,185.73047h-.89942a.20046.20046,0,0,1-.20019-.2002v-4.67675a.20046.20046,0,0,1,.20019-.2002h.89942a.20046.20046,0,0,1,.20019.2002v4.67675A.20046.20046,0,0,1,12.33594,185.73047Zm-.69922-.40039h.499v-4.27637h-.499Zm.25-5.80567a.81661.81661,0,0,1-.82031-.81054.81987.81987,0,1,1,1.63964,0A.81576.81576,0,0,1,11.88672,179.52441Zm0-1.23925a.425.425,0,0,0-.41992.42871.41953.41953,0,0,0,.83886,0A.42415.42415,0,0,0,11.88672,178.28516Z" style="fill: #afafaf"/>
      </g>
      <g>
        <path d="M15.17383,181.48242h.01953a1.59858,1.59858,0,0,1,1.40918-.76953c1.31934,0,1.65918.88965,1.65918,2.0293v2.78808H17.3623v-2.67871c0-.79883-.11035-1.33886-1.02929-1.33886-1.15918,0-1.15918,1.01953-1.15918,1.86914v2.14843h-.89942v-4.67675h.89942Z" style="fill: #afafaf"/>
        <path d="M18.26172,185.73047H17.3623a.20046.20046,0,0,1-.20019-.2002v-2.67871c0-.84033-.125-1.13867-.8291-1.13867-.89258,0-.959.66065-.959,1.669v2.14843a.20046.20046,0,0,1-.20019.2002h-.89942a.20046.20046,0,0,1-.20019-.2002v-4.67675a.20046.20046,0,0,1,.20019-.2002h.89942a.20046.20046,0,0,1,.20019.2002v.09961a1.87967,1.87967,0,0,1,1.22852-.44043c1.251,0,1.85937.72949,1.85937,2.22949v2.78808A.20046.20046,0,0,1,18.26172,185.73047Zm-.69922-.40039h.499v-2.58789c0-1.28223-.43652-1.8291-1.459-1.8291a1.39278,1.39278,0,0,0-1.23438.66748.222.222,0,0,1-.39453-.09815v-.42871h-.499v4.27637h.499v-1.94824c0-.82373,0-2.06934,1.35938-2.06934,1.13476,0,1.22949.79443,1.22949,1.53906Z" style="fill: #afafaf"/>
      </g>
    </g>
    <path d="M6.13366.00062H53.86634a0,0,0,0,1,0,0V5.40321a7.08758,7.08758,0,0,1-7.08758,7.08758H13.22124A7.08758,7.08758,0,0,1,6.13366,5.40321V.00062a0,0,0,0,1,0,0Z" style="fill: #afafaf"/>
    <g>
      <g>
        <g>
          <path d="M12.51363,372.71753H11.15728L9.76189,370.4H9.74628v2.31751H8.62607v-5.74791h1.51736c1.13582,0,1.92036.503,1.92036,1.73057a1.5187,1.5187,0,0,1-1.17388,1.593ZM9.74628,369.615h.14539c.61768,0,1.05191-.183,1.05191-.88455,0-.70892-.44984-.846-1.0441-.846h-.1532Z" style="fill: #cc4c4c"/>
          <path d="M12.51367,372.918H11.15723a.19937.19937,0,0,1-.1709-.09717l-1.04-1.72705v1.624a.20047.20047,0,0,1-.2002.2002H8.626a.20047.20047,0,0,1-.2002-.2002v-5.748a.20048.20048,0,0,1,.2002-.2002h1.51757c1.36719,0,2.12012.68555,2.12012,1.93067a1.791,1.791,0,0,1-1.05273,1.71289l1.46875,2.19336a.1998.1998,0,0,1-.166.31152Zm-1.24316-.40039h.86816l-1.415-2.11328a.198.198,0,0,1-.01758-.19043.2013.2013,0,0,1,.1504-.11817,1.33312,1.33312,0,0,0,1.00683-1.3955c0-1.01563-.57812-1.53028-1.71973-1.53028H8.82617v5.34766H9.5459V370.3999a.20046.20046,0,0,1,.20019-.20019.22645.22645,0,0,1,.18653.09717ZM9.8916,369.81543H9.74609a.20046.20046,0,0,1-.20019-.2002v-1.731a.20047.20047,0,0,1,.20019-.2002h.15332c.33985,0,1.24414,0,1.24414,1.04639A1.05985,1.05985,0,0,1,9.8916,369.81543Zm.05469-1.731v1.33008c.58008-.01074.79687-.19971.79687-.68408C10.74316,368.25928,10.541,368.09277,9.94629,368.08447Z" style="fill: #cc4c4c"/>
        </g>
        <g>
          <path d="M15.521,367.94541v1.26512h1.78375v.97579H15.521v1.55542h1.853v.97579H14.40082v-5.74791h2.97324v.97579Z" style="fill: #cc4c4c"/>
          <path d="M17.374,372.918H14.40039a.20046.20046,0,0,1-.20019-.2002v-5.748a.20047.20047,0,0,1,.20019-.2002H17.374a.20047.20047,0,0,1,.2002.2002v.97558a.20047.20047,0,0,1-.2002.2002H15.72168v.86474h1.583a.20047.20047,0,0,1,.20019.2002v.97607a.20046.20046,0,0,1-.20019.2002h-1.583v1.15478H17.374a.20047.20047,0,0,1,.2002.2002v.97607A.20047.20047,0,0,1,17.374,372.918Zm-2.77343-.40039h2.57324v-.57569H15.52148a.20046.20046,0,0,1-.20019-.20019v-1.55518a.20046.20046,0,0,1,.20019-.20019h1.583v-.57569h-1.583a.20046.20046,0,0,1-.20019-.20019v-1.26514a.20046.20046,0,0,1,.20019-.20019h1.65235v-.5752H14.60059Z" style="fill: #cc4c4c"/>
        </g>
        <g>
          <path d="M20.763,372.71753H19.64278v-5.74791H21.167c1.20511,0,1.98965.48009,1.98965,1.78375a1.62983,1.62983,0,0,1-1.83645,1.81449H20.763Zm0-3.07961h.22932c.66256,0,1.02165-.1449,1.02165-.89236,0-.73916-.4274-.846-1.05288-.846H20.763Z" style="fill: #d8bb44"/>
          <path d="M20.7627,372.86768H19.64258a.15.15,0,0,1-.15039-.14991v-5.748a.15.15,0,0,1,.15039-.14991H21.167c1.41992,0,2.13965.65039,2.13965,1.9336a1.78218,1.78218,0,0,1-1.98633,1.96435h-.40722v2A.15.15,0,0,1,20.7627,372.86768Zm-.96973-.29981h.81933v-2a.15.15,0,0,1,.1504-.1499h.55761a1.48453,1.48453,0,0,0,1.68555-1.66455c0-1.11475-.584-1.63379-1.83887-1.63379H19.793Zm1.19922-2.78027H20.7627a.15.15,0,0,1-.1504-.1499v-1.73829a.15.15,0,0,1,.1504-.1499h.19824c.582,0,1.20312.07666,1.20312.9961C22.16406,369.61035,21.69531,369.7876,20.99219,369.7876Zm-.0791-.29981h.0791c.61426,0,.87109-.103.87109-.74218,0-.59571-.27832-.69629-.90234-.69629h-.04785Z" style="fill: #d8bb44"/>
        </g>
        <g>
          <path d="M26.30941,367.94541v1.26512h1.78375v.97579H26.30941v1.55542h1.853v.97579H25.1892v-5.74791h2.97324v.97579Z" style="fill: #d8bb44"/>
          <path d="M28.16211,372.86768H25.18945a.15.15,0,0,1-.15039-.14991v-5.748a.15.15,0,0,1,.15039-.14991h2.97266a.15.15,0,0,1,.15039.14991v.97558a.15.15,0,0,1-.15039.1499H26.46v.96534h1.63281a.15.15,0,0,1,.15039.1499v.97607a.15.15,0,0,1-.15039.14991H26.46v1.25537h1.70215a.15.15,0,0,1,.15039.1499v.97607A.15.15,0,0,1,28.16211,372.86768Zm-2.82227-.29981h2.67188v-.67627H26.30957a.15.15,0,0,1-.15039-.1499v-1.55518a.15.15,0,0,1,.15039-.1499h1.63281v-.67627H26.30957a.15.15,0,0,1-.15039-.1499v-1.26514a.15.15,0,0,1,.15039-.1499h1.70215v-.67578H25.33984Z" style="fill: #d8bb44"/>
        </g>
        <g>
          <path d="M31.55138,371.74174H33.137v.97579H30.43116v-5.74791h1.12022Z" style="fill: #10a687"/>
          <path d="M33.13672,372.86768H30.43164a.15.15,0,0,1-.15039-.14991v-5.748a.15.15,0,0,1,.15039-.14991h1.12012a.15.15,0,0,1,.15039.14991v4.62207h1.43457a.15.15,0,0,1,.15039.1499v.97607A.15.15,0,0,1,33.13672,372.86768Zm-2.55469-.29981h2.4043v-.67627H31.55176a.15.15,0,0,1-.15039-.1499v-4.62207H30.582Z" style="fill: #10a687"/>
        </g>
        <g>
          <path d="M38.81519,371.74174v.97579H34.64464l2.53121-4.77212H35.033v-.97579H38.9518l-2.52341,4.77212Z" style="fill: #10a687"/>
          <path d="M38.81543,372.86768h-4.1709a.15013.15013,0,0,1-.1289-.07276.15228.15228,0,0,1-.00391-.14746l2.415-4.55225H35.0332a.15.15,0,0,1-.15039-.1499v-.97558a.15.15,0,0,1,.15039-.14991h3.919a.15075.15075,0,0,1,.1289.07227.15323.15323,0,0,1,.00391.14795l-2.40723,4.55176h2.1377a.15.15,0,0,1,.15039.1499v.97607A.15.15,0,0,1,38.81543,372.86768Zm-3.92188-.29981H38.665v-.67627H36.42871a.15077.15077,0,0,1-.12891-.07226.15325.15325,0,0,1-.0039-.148l2.40723-4.55176H35.18359v.67578h1.99219a.15014.15014,0,0,1,.12891.07275.15232.15232,0,0,1,.0039.14747Z" style="fill: #10a687"/>
        </g>
        <g>
          <path d="M42.04311,367.94541v1.26512h1.78376v.97579H42.04311v1.55542h1.853v.97579H40.9229v-5.74791h2.97325v.97579Z" style="fill: #098eb7"/>
          <path d="M43.89648,372.86768H40.92285a.15.15,0,0,1-.15039-.14991v-5.748a.15.15,0,0,1,.15039-.14991h2.97363a.15005.15005,0,0,1,.1504.14991v.97558a.15.15,0,0,1-.1504.1499H42.19336v.96534h1.63379a.15.15,0,0,1,.15039.1499v.97607a.15.15,0,0,1-.15039.14991H42.19336v1.25537h1.70312a.15.15,0,0,1,.1504.1499v.97607A.15005.15005,0,0,1,43.89648,372.86768Zm-2.82324-.29981h2.67285v-.67627H42.043a.15.15,0,0,1-.15039-.1499v-1.55518a.15.15,0,0,1,.15039-.1499h1.63379v-.67627H42.043a.15.15,0,0,1-.15039-.1499v-1.26514a.15.15,0,0,1,.15039-.1499h1.70312v-.67578H41.07324Z" style="fill: #098eb7"/>
        </g>
        <g>
          <path d="M46.16487,366.8169h.808l3.02691,4.01784h.01464v-3.86512h1.12118v5.86208h-.80795l-3.02692-4.01735h-.01561v3.90318H46.16487Z" style="fill: #098eb7"/>
          <path d="M51.13574,372.98145h-.80859a.1508.1508,0,0,1-.12012-.05957l-2.77148-3.67969v3.47558a.15.15,0,0,1-.15039.14991H46.165a.15.15,0,0,1-.15039-.14991v-5.90088a.15.15,0,0,1,.15039-.1499h.80762a.15077.15077,0,0,1,.12011.05957l2.77149,3.67969v-3.43652a.15.15,0,0,1,.15039-.14991h1.12109a.15.15,0,0,1,.15039.14991v5.86181A.15.15,0,0,1,51.13574,372.98145Zm-.7334-.29981h.583v-5.562H50.165V370.835a.15.15,0,0,1-.15039.1499.18059.18059,0,0,1-.13477-.05957l-2.98242-3.95849h-.582v5.60107h.81934v-3.75342a.15.15,0,0,1,.15039-.1499.18271.18271,0,0,1,.13574.05957Z" style="fill: #098eb7"/>
        </g>
      </g>
      <g>
        <rect x="8.48689" y="364.82104" width="42.88704" height="0.89929" style="fill: #e6e6e6"/>
        <path d="M51.374,365.87012H8.4873a.15.15,0,0,1-.15039-.14991v-.89941a.15.15,0,0,1,.15039-.1499H51.374a.15.15,0,0,1,.15039.1499v.89941A.15.15,0,0,1,51.374,365.87012ZM8.6377,365.57031H51.22363v-.59961H8.6377Z" style="fill: #e6e6e6"/>
      </g>
      <g>
        <rect x="8.62607" y="374.27967" width="42.88704" height="0.89929" style="fill: #e6e6e6"/>
        <path d="M51.5127,375.3291H8.626a.15.15,0,0,1-.15039-.1499v-.89941a.15.15,0,0,1,.15039-.14991H51.5127a.15.15,0,0,1,.15039.14991v.89941A.15.15,0,0,1,51.5127,375.3291Zm-42.73633-.2998H51.3623v-.59961H8.77637Z" style="fill: #e6e6e6"/>
      </g>
    </g>
    <g>
      <g>
        <path d="M18.11133,8.98633H16.75684L15.36328,6.67188h-.01562V8.98633H14.22852V3.24512h1.51562c1.13379,0,1.918.50293,1.918,1.72851a1.51779,1.51779,0,0,1-1.17188,1.5918ZM15.34766,5.8877h.14453c.61719,0,1.05078-.18262,1.05078-.88379,0-.708-.44922-.84473-1.043-.84473h-.15234Z" style="fill: #313131"/>
        <path d="M18.11133,9.13623H16.75684a.15012.15012,0,0,1-.12891-.07275L15.49805,7.186V8.98633a.15.15,0,0,1-.15039.1499H14.22852a.15.15,0,0,1-.15039-.1499V3.24512a.15.15,0,0,1,.15039-.14991h1.51562c1.334,0,2.06836.667,2.06836,1.87842a1.7265,1.7265,0,0,1-1.0791,1.686l1.50293,2.24316a.15084.15084,0,0,1,.00683.1543A.14792.14792,0,0,1,18.11133,9.13623Zm-1.26953-.2998h.98828l-1.46485-2.1875a.15045.15045,0,0,1,.09961-.23145,1.38215,1.38215,0,0,0,1.04688-1.44385c0-1.04736-.59473-1.57861-1.76758-1.57861H14.37891V8.83643h.81836V6.67188a.15.15,0,0,1,.15039-.14991.17766.17766,0,0,1,.14453.07276ZM15.49219,6.0376h-.14453a.15.15,0,0,1-.15039-.1499V4.15918a.15.15,0,0,1,.15039-.1499H15.5c.55566,0,1.19336.11279,1.19336.99463C16.69336,6.0376,15.78906,6.0376,15.49219,6.0376Zm.00586-1.72852V5.73779c.64355-.00146.89453-.20752.89453-.73388,0-.5127-.2334-.69483-.89258-.69483Z" style="fill: #313131"/>
      </g>
      <g>
        <path d="M21.12305,4.21973V5.48438h1.78222V6.459H21.12305V8.01172h1.85058v.97461H20.00391V3.24512h2.96972v.97461Z" style="fill: #313131"/>
        <path d="M22.97363,9.13623H20.00391a.15.15,0,0,1-.15039-.1499V3.24512a.15.15,0,0,1,.15039-.14991h2.96972a.15.15,0,0,1,.15039.14991v.97461a.15.15,0,0,1-.15039.1499H21.27344v.96484h1.63183a.15.15,0,0,1,.15039.14991V6.459a.15.15,0,0,1-.15039.14991H21.27344V7.86182h1.70019a.15.15,0,0,1,.15039.1499v.97461A.15.15,0,0,1,22.97363,9.13623Zm-2.81933-.2998h2.66894V8.16162H21.12305a.15.15,0,0,1-.15039-.1499V6.459a.15.15,0,0,1,.15039-.1499h1.63183v-.6748H21.12305a.15.15,0,0,1-.15039-.1499V4.21973a.15.15,0,0,1,.15039-.14991h1.70019V3.395H20.1543Z" style="fill: #313131"/>
      </g>
      <g>
        <path d="M27.11035,8.98633H25.99121V4.21973H24.834V3.24512h3.4336v.97461H27.11035Z" style="fill: #313131"/>
        <path d="M27.11035,9.13623H25.99121a.15.15,0,0,1-.15039-.1499V4.36963H24.834a.15.15,0,0,1-.15039-.1499V3.24512a.15.15,0,0,1,.15039-.14991h3.4336a.15.15,0,0,1,.15039.14991v.97461a.15.15,0,0,1-.15039.1499H27.26074v4.6167A.15.15,0,0,1,27.11035,9.13623Zm-.96875-.2998H26.96V4.21973a.15.15,0,0,1,.15039-.14991h1.00684V3.395H24.98438v.6748h1.00683a.15.15,0,0,1,.15039.14991Z" style="fill: #313131"/>
      </g>
      <g>
        <path d="M34.08789,8.98633H32.7334L31.33984,6.67188h-.01562V8.98633H30.20508V3.24512H31.7207c1.13379,0,1.918.50293,1.918,1.72851a1.51779,1.51779,0,0,1-1.17187,1.5918ZM31.32422,5.8877h.14453c.61719,0,1.05078-.18262,1.05078-.88379,0-.708-.44922-.84473-1.043-.84473h-.15234Z" style="fill: #313131"/>
        <path d="M34.08789,9.13623H32.7334a.15014.15014,0,0,1-.12891-.07275L31.47461,7.186V8.98633a.15.15,0,0,1-.15039.1499H30.20508a.15.15,0,0,1-.15039-.1499V3.24512a.15.15,0,0,1,.15039-.14991H31.7207c1.334,0,2.06836.667,2.06836,1.87842a1.7265,1.7265,0,0,1-1.0791,1.686l1.50293,2.24316a.15086.15086,0,0,1,.00684.1543A.14794.14794,0,0,1,34.08789,9.13623Zm-1.26953-.2998h.98828L32.3418,6.64893a.15044.15044,0,0,1,.09961-.23145,1.38215,1.38215,0,0,0,1.04687-1.44385c0-1.04736-.59473-1.57861-1.76758-1.57861H30.35547V8.83643h.81836V6.67188a.15.15,0,0,1,.15039-.14991.17764.17764,0,0,1,.14453.07276ZM31.46875,6.0376h-.14453a.15.15,0,0,1-.15039-.1499V4.15918a.15.15,0,0,1,.15039-.1499h.15234c.55567,0,1.19336.11279,1.19336.99463C32.66992,6.0376,31.76563,6.0376,31.46875,6.0376Zm.00586-1.72852V5.73779c.64355-.00146.89453-.20752.89453-.73388,0-.5127-.2334-.69483-.89258-.69483Z" style="fill: #313131"/>
      </g>
      <g>
        <path d="M37.09961,8.98633H35.98047V3.24512h1.11914Z" style="fill: #313131"/>
        <path d="M37.09961,9.13623H35.98047a.15.15,0,0,1-.15039-.1499V3.24512a.15.15,0,0,1,.15039-.14991h1.11914a.15.15,0,0,1,.15039.14991V8.98633A.15.15,0,0,1,37.09961,9.13623Zm-.96875-.2998h.81836V3.395h-.81836Z" style="fill: #313131"/>
      </g>
      <g>
        <path d="M44.51074,5.93359v.14454c0,1.62207-.83008,3.06054-2.6123,3.06054a2.81423,2.81423,0,0,1-2.7334-3,2.85441,2.85441,0,0,1,2.80273-3.0459,2.47615,2.47615,0,0,1,2.26856,1.3711l-.99024.5332A1.4587,1.4587,0,0,0,41.93652,4.083c-1.08105,0-1.61425,1.10449-1.61425,2.05566a1.81527,1.81527,0,0,0,1.62207,2.01074,1.35417,1.35417,0,0,0,1.30957-1.30273H42.03613V5.93359Z" style="fill: #313131"/>
        <path d="M41.89844,9.28857a2.95921,2.95921,0,0,1-2.88379-3.1499,3.01388,3.01388,0,0,1,2.95312-3.1958,2.62951,2.62951,0,0,1,2.40235,1.45361.14916.14916,0,0,1-.0625.19922l-.99024.53321a.14656.14656,0,0,1-.12011.00976.15283.15283,0,0,1-.08887-.08105,1.31329,1.31329,0,0,0-1.17188-.82471c-.95117,0-1.46386.98193-1.46386,1.90576,0,.90186.51562,1.86084,1.47168,1.86084a1.20132,1.20132,0,0,0,1.14453-1.00293H42.03613a.15.15,0,0,1-.15039-.1499V5.93359a.15.15,0,0,1,.15039-.1499h2.47461a.15.15,0,0,1,.15039.1499v.14454C44.66113,8.02832,43.57617,9.28857,41.89844,9.28857Zm.06933-6.04589a2.70092,2.70092,0,0,0-2.65234,2.896,2.67794,2.67794,0,0,0,2.583,2.8501c1.81543,0,2.46094-1.56348,2.46191-2.90527H42.18652v.61328h1.06739a.14993.14993,0,0,1,.10742.04541.15261.15261,0,0,1,.043.10937,1.50954,1.50954,0,0,1-1.46,1.44776,1.96569,1.96569,0,0,1-1.77246-2.16065,1.99383,1.99383,0,0,1,1.76464-2.20556,1.5938,1.5938,0,0,1,1.375.85839l.72168-.38867A2.33858,2.33858,0,0,0,41.96777,3.24268Z" style="fill: #313131"/>
      </g>
    </g>
  </g>
</svg>
