<svg id="Layer_1" data-name="Layer 1" xmlns="http://www.w3.org/2000/svg" xmlns:xlink="http://www.w3.org/1999/xlink" width="120" height="380" viewBox="0 0 120 380">
  <defs>
    <pattern id="New_Pattern_Swatch_1" data-name="New Pattern Swatch 1" width="24.639" height="26.06453" patternTransform="matrix(0.99999, 0, 0, -0.99999, 6.02823, 778.54901)" patternUnits="userSpaceOnUse" viewBox="0 0 24.639 26.065">
      <rect width="24.639" height="26.06453" style="fill: none"/>
      <rect y="-0.00013" width="24.63887" height="26.06439" style="fill: none"/>
      <rect y="-0.00013" width="24.63887" height="26.06439" style="fill: #cc4c4c"/>
    </pattern>
    <pattern id="New_Pattern_Swatch_1-3" data-name="New Pattern Swatch 1-3" width="24.639" height="26.06453" patternTransform="matrix(0.67152, -0.67537, -0.67537, -0.67152, 37.09166, 752.00426)" patternUnits="userSpaceOnUse" viewBox="0 0 24.639 26.065">
      <rect width="24.639" height="26.06453" style="fill: none"/>
      <rect y="-0.00013" width="24.63887" height="26.06439" style="fill: none"/>
      <rect y="-0.00013" width="24.63887" height="26.06439" style="fill: #cc4c4c"/>
    </pattern>
    <pattern id="New_Pattern_Swatch_1-5" data-name="New Pattern Swatch 1-5" width="24.639" height="26.06453" patternTransform="matrix(0.0164, -0.91673, -0.91673, -0.0164, 17.42168, 762.87856)" patternUnits="userSpaceOnUse" viewBox="0 0 24.639 26.065">
      <rect width="24.639" height="26.06453" style="fill: none"/>
      <rect y="-0.00013" width="24.63887" height="26.06439" style="fill: none"/>
      <rect y="-0.00013" width="24.63887" height="26.06439" style="fill: #cc4c4c"/>
    </pattern>
    <pattern id="New_Pattern_Swatch_1-7" data-name="New Pattern Swatch 1-7" width="24.639" height="26.06453" patternTransform="matrix(-0.62703, -0.63848, -0.63848, 0.62703, 23.43822, 748.39958)" patternUnits="userSpaceOnUse" viewBox="0 0 24.639 26.065">
      <rect width="24.639" height="26.06453" style="fill: none"/>
      <rect y="-0.00013" width="24.63887" height="26.06439" style="fill: none"/>
      <rect y="-0.00013" width="24.63887" height="26.06439" style="fill: #cc4c4c"/>
    </pattern>
    <pattern id="New_Pattern_Swatch_1-9" data-name="New Pattern Swatch 1-9" width="24.639" height="26.06453" patternTransform="matrix(-0.88743, -0.00203, -0.00203, 0.88743, 34.14408, 765.61289)" patternUnits="userSpaceOnUse" viewBox="0 0 24.639 26.065">
      <rect width="24.639" height="26.06453" style="fill: none"/>
      <rect y="-0.00013" width="24.63887" height="26.06439" style="fill: none"/>
      <rect y="-0.00013" width="24.63887" height="26.06439" style="fill: #cc4c4c"/>
    </pattern>
    <pattern id="New_Pattern_Swatch_1-11" data-name="New Pattern Swatch 1-11" width="24.639" height="26.06453" patternTransform="matrix(-0.62984, 0.63571, 0.63571, 0.62984, 40.95032, 759.3861)" patternUnits="userSpaceOnUse" viewBox="0 0 24.639 26.065">
      <rect width="24.639" height="26.06453" style="fill: none"/>
      <rect y="-0.00013" width="24.63887" height="26.06439" style="fill: none"/>
      <rect y="-0.00013" width="24.63887" height="26.06439" style="fill: #cc4c4c"/>
    </pattern>
    <pattern id="New_Pattern_Swatch_1-13" data-name="New Pattern Swatch 1-13" width="24.639" height="26.06453" patternTransform="matrix(0.01206, 0.9168, 0.9168, -0.01206, 52.73919, 792.77997)" patternUnits="userSpaceOnUse" viewBox="0 0 24.639 26.065">
      <rect width="24.639" height="26.06453" style="fill: none"/>
      <rect y="-0.00013" width="24.63887" height="26.06439" style="fill: none"/>
      <rect y="-0.00013" width="24.63887" height="26.06439" style="fill: #cc4c4c"/>
    </pattern>
    <pattern id="New_Pattern_Swatch_1-15" data-name="New Pattern Swatch 1-15" width="24.639" height="26.06453" patternTransform="matrix(0.66846, 0.67839, 0.67839, -0.66846, 18.99429, 782.86123)" patternUnits="userSpaceOnUse" viewBox="0 0 24.639 26.065">
      <rect width="24.639" height="26.06453" style="fill: none"/>
      <rect y="-0.00013" width="24.63887" height="26.06439" style="fill: none"/>
      <rect y="-0.00013" width="24.63887" height="26.06439" style="fill: #cc4c4c"/>
    </pattern>
    <clipPath id="clip-path">
      <path d="M94.76074,200.23242a.49983.49983,0,0,1-.248-.93408,10.12488,10.12488,0,1,0-10.04786-.0127.5.5,0,1,1-.498.86719h0a11.12527,11.12527,0,1,1,11.042.01367A.49431.49431,0,0,1,94.76074,200.23242Z" style="fill: none"/>
    </clipPath>
    <clipPath id="clip-path-2">
      <path d="M89.5,180.37988a.4997.4997,0,0,1-.5-.49942V175.314a26.79706,26.79706,0,0,1,3.64648-13.48731l4.42188-7.57861a.49979.49979,0,1,1,.86328.5039h0l-4.42187,7.57862A25.80238,25.80238,0,0,0,90,175.314v4.56591a.49969.49969,0,0,1-.49945.5Z" style="fill: none"/>
    </clipPath>
  </defs>
  <title>repelzen_BG-01</title>
  <g id="export_bg" data-name="export bg">
    <g id="path33453">
      <path d="M0,0H120V380H0Z" style="fill: #313131"/>
    </g>
  </g>
  <g id="EXPORT">
    <g>
      <g>
        <path d="M95.14063,243.47607a.50012.50012,0,0,1-.44043-.26318l-.56836-1.05615a.50006.50006,0,1,1,.88086-.47363l.56835,1.05615a.4996.4996,0,0,1-.44042.73681Z" style="fill: #d8bb44"/>
        <path d="M100.21973,237.7998a.5038.5038,0,0,1-.19532-.03955L98.9209,237.293a.50016.50016,0,0,1,.39062-.9209l1.10352.46729a.50021.50021,0,0,1-.19531.96043Z" style="fill: #d8bb44"/>
        <path d="M99.82813,230.311a.5.5,0,0,1-.12011-.98536l1.16307-.28906a.5.5,0,0,1,.2445.96965l-.00425.00105-1.1631.28906A.51115.51115,0,0,1,99.82813,230.311Z" style="fill: #d8bb44"/>
        <path d="M96.14941,224.624a.49971.49971,0,0,1-.39453-.80713l.73632-.9458a.5.5,0,0,1,.79412.60776l-.005.0065-.73632.9458A.49974.49974,0,0,1,96.14941,224.624Z" style="fill: #d8bb44"/>
        <path d="M89.52539,222.34131h-.001a.49983.49983,0,0,1-.499-.50064v-.00083l.00293-1.19824a.50043.50043,0,0,1,.5-.499h.001a.49971.49971,0,0,1,.499.50041v.0006l-.00293,1.19874A.50044.50044,0,0,1,89.52539,222.34131Z" style="fill: #d8bb44"/>
        <path d="M82.8877,224.59521a.49875.49875,0,0,1-.3955-.19433l-.73243-.94922a.49986.49986,0,1,1,.78732-.6161l.00368.00477.73243.94922a.49964.49964,0,0,1-.3955.80566Z" style="fill: #d8bb44"/>
        <path d="M79.18359,230.26465a.51006.51006,0,0,1-.123-.01514l-1.16211-.29443a.50024.50024,0,0,1,.2461-.96973l1.16211.29444a.50018.50018,0,0,1-.12305.98486Z" style="fill: #d8bb44"/>
        <path d="M78.75391,237.75537a.50009.50009,0,0,1-.19239-.96142l1.10648-.462a.49992.49992,0,1,1,.38476.92285h0l-1.10644.46192A.49428.49428,0,0,1,78.75391,237.75537Z" style="fill: #d8bb44"/>
        <path d="M83.82324,243.4375a.49962.49962,0,0,1-.44043-.73682l.56836-1.05615a.50006.50006,0,0,1,.88086.47363h0l-.56836,1.05616A.50011.50011,0,0,1,83.82324,243.4375Z" style="fill: #d8bb44"/>
      </g>
      <g>
        <path d="M94.76114,241.731a10.62463,10.62463,0,1,0-10.54511-.01307" style="fill: #313131"/>
        <path d="M94.76074,242.231a.49983.49983,0,0,1-.248-.93408,10.12485,10.12485,0,1,0-10.04786-.01269.5.5,0,1,1-.498.86718h0a11.12527,11.12527,0,1,1,11.042.01367A.49433.49433,0,0,1,94.76074,242.231Z" style="fill: #d8bb44"/>
      </g>
    </g>
    <g>
      <g>
        <path d="M95.14063,286.49316a.50014.50014,0,0,1-.44043-.26318l-.56836-1.05566a.50006.50006,0,0,1,.88086-.47364l.56835,1.05567a.4996.4996,0,0,1-.44042.73681Z" style="fill: #10a687"/>
        <path d="M100.21973,280.81689a.5038.5038,0,0,1-.19532-.03955l-1.10351-.46728a.50016.50016,0,0,1,.39062-.9209l1.10352.46729a.50021.50021,0,0,1-.19531.96044Z" style="fill: #10a687"/>
        <path d="M99.82813,273.32813a.5.5,0,0,1-.12011-.98536l1.16307-.28906a.5.5,0,0,1,.2445.96964l-.00425.00106-1.1631.28907A.51272.51272,0,0,1,99.82813,273.32813Z" style="fill: #10a687"/>
        <path d="M96.14941,267.64111a.49971.49971,0,0,1-.39453-.80713l.73632-.9458a.5.5,0,0,1,.79412.60776l-.005.0065-.73632.9458A.49974.49974,0,0,1,96.14941,267.64111Z" style="fill: #10a687"/>
        <path d="M89.52539,265.35889h-.001a.49972.49972,0,0,1-.499-.50043v-.00058l.00293-1.19922a.50044.50044,0,0,1,.5-.499h.001a.4997.4997,0,0,1,.499.50043v.00058l-.00293,1.19921A.50046.50046,0,0,1,89.52539,265.35889Z" style="fill: #10a687"/>
        <path d="M82.8877,267.6123a.4988.4988,0,0,1-.3955-.19433l-.73243-.94922a.49986.49986,0,1,1,.78732-.61609l.00368.00476.73243.94922a.49964.49964,0,0,1-.3955.80566Z" style="fill: #10a687"/>
        <path d="M79.18359,273.28223a.51106.51106,0,0,1-.123-.01514l-1.16211-.29443a.50024.50024,0,0,1,.2461-.96973h0l1.16211.29443a.50019.50019,0,0,1-.12305.98487Z" style="fill: #10a687"/>
        <path d="M78.75391,280.773a.5.5,0,0,1-.19239-.96143l1.10645-.4624a.49992.49992,0,1,1,.38476.92285h0l-1.10644.46241A.49414.49414,0,0,1,78.75391,280.773Z" style="fill: #10a687"/>
        <path d="M83.82324,286.45459a.49962.49962,0,0,1-.44043-.73682l.56836-1.05615a.50006.50006,0,0,1,.88086.47363l-.56836,1.05616A.50013.50013,0,0,1,83.82324,286.45459Z" style="fill: #10a687"/>
      </g>
      <g>
        <path d="M94.76114,284.74826a10.62464,10.62464,0,1,0-10.54511-.01309" style="fill: #313131"/>
        <path d="M94.76074,285.24805a.49985.49985,0,0,1-.248-.93409,10.12442,10.12442,0,1,0-10.04786-.0122.5.5,0,0,1-.498.86719h0a11.12568,11.12568,0,1,1,11.042.01318A.49474.49474,0,0,1,94.76074,285.24805Z" style="fill: #10a687"/>
      </g>
    </g>
    <g>
      <g>
        <path d="M95.14063,328.47607a.50014.50014,0,0,1-.44043-.26318l-.56836-1.05566a.50006.50006,0,0,1,.88086-.47364l.56835,1.05567a.4996.4996,0,0,1-.44042.73681Z" style="fill: #098eb7"/>
        <path d="M100.21973,322.7998a.496.496,0,0,1-.19435-.03955l-1.1035-.46679a.49978.49978,0,0,1,.38807-.92115l.0006.00025,1.1035.4668a.49975.49975,0,0,1-.19432.96044Z" style="fill: #098eb7"/>
        <path d="M99.82813,315.311a.5.5,0,0,1-.12011-.98535l1.16307-.28906a.5.5,0,0,1,.2445.96964l-.00425.00106-1.1631.28907A.51218.51218,0,0,1,99.82813,315.311Z" style="fill: #098eb7"/>
        <path d="M96.14941,309.624a.49971.49971,0,0,1-.39453-.80713l.73632-.9458a.5.5,0,0,1,.79412.60776l-.005.0065-.73632.9458A.49974.49974,0,0,1,96.14941,309.624Z" style="fill: #098eb7"/>
        <path d="M89.52539,307.3418h-.001a.49972.49972,0,0,1-.499-.50043v-.00058l.00293-1.19922a.50044.50044,0,0,1,.5-.499h.001a.4997.4997,0,0,1,.499.50043v.00058l-.00293,1.19921A.50046.50046,0,0,1,89.52539,307.3418Z" style="fill: #098eb7"/>
        <path d="M82.8877,309.59521a.4988.4988,0,0,1-.3955-.19433l-.73243-.94922a.49986.49986,0,1,1,.78732-.61609l.00368.00476.73243.94922a.49964.49964,0,0,1-.3955.80566Z" style="fill: #098eb7"/>
        <path d="M79.18359,315.26514a.51106.51106,0,0,1-.123-.01514l-1.16211-.29443a.50024.50024,0,0,1,.2461-.96973l1.16211.29443a.50019.50019,0,0,1-.12305.98487Z" style="fill: #098eb7"/>
        <path d="M78.75391,322.75586a.5.5,0,0,1-.19239-.96143l1.10645-.4624a.49992.49992,0,1,1,.38476.92285h0l-1.10644.46241A.49414.49414,0,0,1,78.75391,322.75586Z" style="fill: #098eb7"/>
        <path d="M83.82324,328.4375a.49962.49962,0,0,1-.44043-.73682l.56836-1.05615a.50006.50006,0,0,1,.88086.47363l-.56836,1.05616A.50013.50013,0,0,1,83.82324,328.4375Z" style="fill: #098eb7"/>
      </g>
      <g>
        <path d="M94.76114,326.73123a10.62464,10.62464,0,1,0-10.54511-.01309" style="fill: #313131"/>
        <path d="M94.76074,327.23145a.49985.49985,0,0,1-.248-.93409,10.12488,10.12488,0,1,0-10.04786-.01269.5.5,0,0,1-.498.86719h0a11.12525,11.12525,0,1,1,11.042.01367A.49484.49484,0,0,1,94.76074,327.23145Z" style="fill: #098eb7"/>
      </g>
    </g>
    <path d="M24.63086,118.00732a.49971.49971,0,0,1-.5-.49942v-8.57284c0-4.57617,2.418-9.12207,7.18652-13.51074L48.24414,80.46289a.49986.49986,0,1,1,.66737.74435l-.00526.00465L31.9873,96.1665c-4.54687,4.18505-6.85644,8.48339-6.85644,12.76856v8.57226a.49971.49971,0,0,1-.49942.5Z" style="fill: #afafaf"/>
    <rect x="104.50002" y="198.94443" width="15.45279" height="23.05556" style="fill: #afafaf"/>
    <g>
      <circle cx="17.41783" cy="210.5" r="12.5479" style="fill: #afafaf"/>
      <rect x="0.0472" y="197.95222" width="17.37062" height="25.02234" style="fill: #afafaf"/>
    </g>
    <g>
      <circle cx="17.41783" cy="182.5" r="12.5479" style="fill: #afafaf"/>
      <rect x="0.0472" y="169.95222" width="17.37062" height="25.02234" style="fill: #afafaf"/>
    </g>
    <g>
      <circle cx="17.41783" cy="238.5" r="12.5479" style="fill: #afafaf"/>
      <rect x="0.0472" y="225.95222" width="17.37062" height="25.02234" style="fill: #afafaf"/>
    </g>
    <g>
      <circle cx="17.41783" cy="294.5" r="12.54791" transform="matrix(0.00909, -0.99996, 0.99996, 0.00909, -277.22833, 309.24017)" style="fill: #afafaf"/>
      <rect x="0.04721" y="281.95223" width="17.37061" height="25.02234" style="fill: #afafaf"/>
    </g>
    <g>
      <circle cx="17.41783" cy="322.5" r="12.54791" transform="matrix(0.00909, -0.99996, 0.99996, 0.00909, -305.22717, 336.98565)" style="fill: #afafaf"/>
      <rect x="0.04721" y="309.95223" width="17.37061" height="25.02234" style="fill: #afafaf"/>
    </g>
    <rect x="104.5" y="241.00001" width="15.4528" height="23" style="fill: #afafaf"/>
    <rect x="104.49998" y="283.00001" width="15.45279" height="23" style="fill: #afafaf"/>
    <rect x="104.5" y="325.00002" width="15.45279" height="22.72582" style="fill: #afafaf"/>
    <g>
      <g>
        <path d="M87.65918,145.19238a2.49855,2.49855,0,1,1-2.50784-2.48922l.00884,0a2.45976,2.45976,0,0,1,2.49886,2.42Q87.65961,145.1578,87.65918,145.19238Zm-4.09766,0a1.59942,1.59942,0,1,0,1.59864-1.62988A1.6229,1.6229,0,0,0,83.56152,145.19238Z" style="fill: #afafaf"/>
        <path d="M85.16016,147.88086a2.66487,2.66487,0,1,1,.05786.00012Q85.18909,147.88124,85.16016,147.88086Zm0-4.97754a2.26859,2.26859,0,1,0,.05083-.00011Q85.18558,142.903,85.16016,142.90332Zm0,4.11816a1.82984,1.82984,0,1,1,1.79955-1.85963l.00024.03053A1.81617,1.81617,0,0,1,85.16016,147.02148Zm0-3.25877a1.42951,1.42951,0,1,0,1.39908,1.45929l.00032-.0296a1.41551,1.41551,0,0,0-1.3994-1.4297Z" style="fill: #afafaf"/>
      </g>
      <g>
        <path d="M92.415,144.17285a1.71423,1.71423,0,0,0-1.33887-.62988,1.61762,1.61762,0,0,0-1.55957,1.63867,1.58029,1.58029,0,0,0,1.49881,1.65772q.06012.003.12033.00146a1.68107,1.68107,0,0,0,1.2793-.61914v1.14941a2.61446,2.61446,0,0,1-1.28906.30957,2.48929,2.48929,0,1,1-.03984-4.97842q.04482-.00034.08964.0009a2.5322,2.5322,0,0,1,1.23925.31055Z" style="fill: #afafaf"/>
        <path d="M91.126,147.88086a2.68945,2.68945,0,0,1-.03941-5.37875q.04461-.00033.08921.00082a2.73262,2.73262,0,0,1,1.33985.33789.20052.20052,0,0,1,.0996.17285v1.15918a.20026.20026,0,0,1-.35058.13184,1.51247,1.51247,0,0,0-1.18848-.56153,1.41907,1.41907,0,0,0-1.35936,1.43848,1.37665,1.37665,0,0,0,1.2911,1.45721q.06384.00387.12784.00179a1.47045,1.47045,0,0,0,1.12989-.55225.20025.20025,0,0,1,.3496.1333v1.14942a.20135.20135,0,0,1-.10546.17627A2.81423,2.81423,0,0,1,91.126,147.88086Zm.0498-4.97754a2.28712,2.28712,0,0,0-2.35751,2.21451q-.00162.05192-.00089.10385a2.25957,2.25957,0,0,0,2.25982,2.25932l.04878-.00053a2.44887,2.44887,0,0,0,1.08886-.23193v-.57129a1.83693,1.83693,0,1,1-1.13867-3.33448,1.86547,1.86547,0,0,1,1.13867.37207v-.582a2.38485,2.38485,0,0,0-1.03908-.22952Z" style="fill: #afafaf"/>
      </g>
      <g>
        <path d="M94.91309,147.52051h-.89942v-3.83789h-.49022v-.83887h.49022v-1.78906h.89942v1.78906h.8789v.83887h-.8789Z" style="fill: #afafaf"/>
        <path d="M94.91309,147.7207h-.89942a.20046.20046,0,0,1-.20019-.20019v-3.6377h-.29a.20047.20047,0,0,1-.2002-.20019v-.83887a.20049.20049,0,0,1,.2002-.2002h.29v-1.58886a.20048.20048,0,0,1,.20019-.2002h.89942a.20046.20046,0,0,1,.20019.2002v1.58886H95.792a.20049.20049,0,0,1,.2002.2002v.83887a.20047.20047,0,0,1-.2002.20019h-.67871v3.6377A.20046.20046,0,0,1,94.91309,147.7207Zm-.69922-.40039h.499v-3.63769a.20047.20047,0,0,1,.2002-.2002h.67871V143.044h-.67871a.20047.20047,0,0,1-.2002-.2002v-1.58887h-.499v1.58887a.20048.20048,0,0,1-.2002.2002h-.29v.43847h.29a.20048.20048,0,0,1,.2002.2002Z" style="fill: #afafaf"/>
      </g>
      <g>
        <path d="M101.168,147.52051h-.89942V146.791H100.249a1.9168,1.9168,0,0,1-1.58886.88963,2.50453,2.50453,0,0,1-.03028-4.97752,1.915,1.915,0,0,1,1.61914.91992h.01953v-.7793h.89942Zm-.84863-2.33887a1.51127,1.51127,0,1,0-1.51954,1.69922,1.535,1.535,0,0,0,1.51951-1.69922Z" style="fill: #afafaf"/>
        <path d="M98.66016,147.88086a2.52175,2.52175,0,0,1-2.447-2.59438q.00195-.06715.0075-.13414a2.493,2.493,0,0,1,2.33035-2.64567q.03937-.00251.07883-.00374a2.0353,2.0353,0,0,1,1.43847.58887v-.24805a.20048.20048,0,0,1,.20019-.2002h.89942a.20048.20048,0,0,1,.20019.2002v4.67676a.20046.20046,0,0,1-.20019.20019h-.89942a.20046.20046,0,0,1-.20019-.20019v-.21045A2.04731,2.04731,0,0,1,98.66016,147.88086Zm-.03028-4.97754a2.30589,2.30589,0,0,0,.03028,4.57715,1.72512,1.72512,0,0,0,1.42382-.80176.22212.22212,0,0,1,.38477.11231v.52929h.499V143.044h-.499v.5791a.20045.20045,0,0,1-.2002.20019.23613.23613,0,0,1-.18653-.08984A1.71943,1.71943,0,0,0,98.62988,142.90332Zm.16992,4.17773a1.8975,1.8975,0,1,1,1.71145-1.71145A1.9022,1.9022,0,0,1,98.7998,147.08105Zm0-3.37791a1.49962,1.49962,0,1,0,1.31934,1.47852,1.351,1.351,0,0,0-1.21717-1.47272q-.051-.00486-.10217-.00581Z" style="fill: #afafaf"/>
      </g>
      <g>
        <path d="M104.43457,145.76172l1.34961-2.918H106.793l-2.3584,4.83691-2.34863-4.83691h1.00976Z" style="fill: #afafaf"/>
        <path d="M104.43457,147.88086h0a.19989.19989,0,0,1-.17969-.11279l-2.34863-4.83692a.19974.19974,0,0,1,.17969-.2876h1.00976a.2.2,0,0,1,.18164.1167l1.15821,2.52344,1.167-2.52392a.20053.20053,0,0,1,.18164-.11623H106.793a.2.2,0,0,1,.17969.28809l-2.3584,4.83691A.20053.20053,0,0,1,104.43457,147.88086Zm-2.0293-4.83691,2.0293,4.17968,2.03809-4.17968h-.56054l-1.2959,2.80174a.20057.20057,0,0,1-.18164.11621h0a.20077.20077,0,0,1-.18164-.1167l-1.28516-2.80125Z" style="fill: #afafaf"/>
      </g>
      <g>
        <path d="M108.32129,145.332a1.47146,1.47146,0,0,0,1.39074,1.548l.01844.00087a1.53087,1.53087,0,0,0,1.39941-.90918l.75977.42969a2.43377,2.43377,0,0,1-2.169,1.27929,2.27359,2.27359,0,0,1-2.30618-2.24055q-.00157-.10934.00736-.21845a2.23568,2.23568,0,0,1,2.27929-2.51855c1.48828,0,2.18848,1.09959,2.18848,2.48924v.13965Zm2.66894-.67969a1.263,1.263,0,0,0-1.28907-1.16894,1.33831,1.33831,0,0,0-1.33007,1.16894Z" style="fill: #afafaf"/>
        <path d="M109.7207,147.88086a2.47093,2.47093,0,0,1-2.50595-2.43538q-.0016-.112.007-.2238a2.41852,2.41852,0,0,1,2.47949-2.71875c1.47364,0,2.38868,1.03076,2.38868,2.68945v.13965a.20048.20048,0,0,1-.20019.2002h-3.35254a1.23721,1.23721,0,0,0,1.19336,1.14843,1.34072,1.34072,0,0,0,1.22851-.813.20037.20037,0,0,1,.26954-.07031l.75975.42969a.20049.20049,0,0,1,.07715.26953A2.62632,2.62632,0,0,1,109.7207,147.88086Zm-.01953-4.97754a2.02831,2.02831,0,0,0-2.0791,2.31836,2.0662,2.0662,0,0,0,2.09863,2.25879,2.23142,2.23142,0,0,0,1.89258-1.00586l-.417-.23535a1.64807,1.64807,0,0,1-1.46582.84179,1.66768,1.66768,0,0,1-1.61034-1.72312l.001-.02346a.20529.20529,0,0,1,.05762-.14306.201.201,0,0,1,.14257-.05957h3.36816C111.669,143.73486,110.92871,142.90332,109.70117,142.90332Zm1.28906,1.94922h-2.61914a.20042.20042,0,0,1-.19725-.23291,1.54483,1.54483,0,0,1,1.52734-1.33643,1.46285,1.46285,0,0,1,1.48633,1.33789.19732.19732,0,0,1-.04492.16114A.20106.20106,0,0,1,110.99023,144.85254Zm-2.36229-.40039h2.11133a1.0228,1.0228,0,0,0-1.0381-.76856A1.11682,1.11682,0,0,0,108.62794,144.45215Z" style="fill: #afafaf"/>
      </g>
    </g>
    <g>
      <g>
        <path d="M52.23145,143.60352h.03027a1.34516,1.34516,0,0,1,1.2793-.89942,1.40244,1.40244,0,0,1,.73925.22949l-.41015.81934a.78416.78416,0,0,0-.54883-.18945c-.96973,0-1.08984.89941-1.08984,1.65918v2.29881H51.332v-4.67774h.89942Z" style="fill: #afafaf"/>
        <path d="M52.23145,147.72168H51.332a.20046.20046,0,0,1-.20019-.2002v-4.67773a.20048.20048,0,0,1,.20019-.2002h.89942a.20048.20048,0,0,1,.20019.2002v.12549a1.50958,1.50958,0,0,1,1.10938-.46533,1.61129,1.61129,0,0,1,.84668.26074.20071.20071,0,0,1,.07128.2583l-.41014.81934a.19738.19738,0,0,1-.14063.10693.20389.20389,0,0,1-.16993-.0459.58.58,0,0,0-.417-.13965c-.63184,0-.88964.42237-.88964,1.459v2.29881A.20047.20047,0,0,1,52.23145,147.72168Zm-.69922-.40039h.499v-2.09863c0-.46,0-1.85938,1.29-1.85938a1.04986,1.04986,0,0,1,.4707.09863l.22364-.4458a1.136,1.136,0,0,0-1.56836.66162c-.07032.17873-.415.11817-.416-.0742V143.044h-.499Z" style="fill: #afafaf"/>
      </g>
      <g>
        <path d="M59.85645,145.19238a2.49856,2.49856,0,1,1-2.50882-2.48826l.00982,0a2.45977,2.45977,0,0,1,2.49885,2.42008Q59.85686,145.15828,59.85645,145.19238Zm-4.09766,0a1.59939,1.59939,0,1,0,1.59863-1.6289A1.62226,1.62226,0,0,0,55.75879,145.19238Z" style="fill: #afafaf"/>
        <path d="M57.35742,147.88086a2.66486,2.66486,0,1,1,.05788.00012Q57.38637,147.88124,57.35742,147.88086Zm0-4.97656a2.26768,2.26768,0,1,0,.05091-.00013Q57.38289,142.90395,57.35742,142.9043Zm0,4.11718a1.82934,1.82934,0,1,1,1.79957-1.85862l.00024.02952A1.81617,1.81617,0,0,1,57.35742,147.02148Zm0-3.25781a1.429,1.429,0,1,0,1.39912,1.45827l.0003-.02956A1.415,1.415,0,0,0,57.35742,143.76367Z" style="fill: #afafaf"/>
      </g>
      <g>
        <path d="M65.75195,145.19238a2.49856,2.49856,0,1,1-2.50881-2.48826l.00981,0a2.45978,2.45978,0,0,1,2.49886,2.42006Q65.75235,145.15827,65.75195,145.19238Zm-4.09765,0a1.59939,1.59939,0,1,0,1.59863-1.6289A1.62225,1.62225,0,0,0,61.6543,145.19238Z" style="fill: #afafaf"/>
        <path d="M63.25293,147.88086a2.66486,2.66486,0,1,1,.05788.00012Q63.28188,147.88124,63.25293,147.88086Zm0-4.97656a2.26768,2.26768,0,1,0,.05091-.00013Q63.27839,142.90395,63.25293,142.9043Zm0,4.11718a1.82934,1.82934,0,1,1,1.79956-1.85864l.00024.02954A1.81618,1.81618,0,0,1,63.25293,147.02148Zm0-3.25781A1.429,1.429,0,1,0,64.652,145.222l.00031-.02957A1.415,1.415,0,0,0,63.25293,143.76367Z" style="fill: #afafaf"/>
      </g>
      <g>
        <path d="M68.09961,147.52148H67.2002v-3.83789H66.71v-.83984h.49024v-1.78906h.89941v1.78906h.8789v.83984h-.8789Z" style="fill: #afafaf"/>
        <path d="M68.09961,147.72168H67.2002a.20047.20047,0,0,1-.2002-.2002v-3.63769h-.29a.20046.20046,0,0,1-.20019-.2002v-.83984a.20048.20048,0,0,1,.20019-.2002H67v-1.58886a.20047.20047,0,0,1,.2002-.2002h.89941a.20047.20047,0,0,1,.20019.2002v1.58886h.67872a.20047.20047,0,0,1,.20018.2002v.83984a.20045.20045,0,0,1-.20018.2002H68.2998v3.63769A.20046.20046,0,0,1,68.09961,147.72168Zm-.69922-.40039h.499v-3.6377a.20047.20047,0,0,1,.2002-.20019h.67872V143.044h-.67872a.20049.20049,0,0,1-.2002-.2002v-1.58887h-.499v1.58887a.20047.20047,0,0,1-.20019.2002h-.29v.43945h.29a.20045.20045,0,0,1,.20019.20019Z" style="fill: #afafaf"/>
      </g>
    </g>
    <g>
      <g>
        <path d="M9.97168,143.91309a.69288.69288,0,0,0-.59961-.40918.4846.4846,0,0,0-.49023.459c0,.41015.54.58984,1.08984.83984.54883.25,1.0791.58984,1.0791,1.32912a1.56971,1.56971,0,0,1-1.59,1.54918l-.0194-.00037a1.72411,1.72411,0,0,1-1.61914-1.04881l.76953-.34961a.93035.93035,0,0,0,.84961.59961.67113.67113,0,0,0,.70894-.631l.00106-.02911a.5655.5655,0,0,0-.33008-.50977l-.87988-.46972c-.51953-.2793-.89942-.53906-.89942-1.17871a1.36545,1.36545,0,0,1,1.37145-1.35944l.00844.00006a1.39176,1.39176,0,0,1,1.27929.81934Z" style="fill: #afafaf"/>
        <path d="M9.44141,147.88086a1.90891,1.90891,0,0,1-1.80567-1.17822.19916.19916,0,0,1,.10352-.25293l.76953-.34961a.201.201,0,0,1,.25879.08642c.19629.36084.3789.49512.67383.49512a.47275.47275,0,0,0,.50843-.43416l.00133-.02585c0-.146-.04687-.21386-.24121-.34375l-.8623-.45947c-.53028-.28467-1.00586-.60254-1.00586-1.355a1.59126,1.59126,0,0,1,3.03906-.62793.19981.19981,0,0,1-.08594.26416l-.72949.38964a.197.197,0,0,1-.15625.01368.201.201,0,0,1-.11816-.10352.493.493,0,0,0-.41895-.29541.28744.28744,0,0,0-.29.25879c0,.229.35547.38525.76758.56689l.20508.09082a1.65379,1.65379,0,0,1,1.19629,1.51123,1.76135,1.76135,0,0,1-1.77292,1.74971Zm-1.35254-1.15039a1.562,1.562,0,0,0,1.35254.75A1.36525,1.36525,0,0,0,10.85,146.16l.00062-.02813c0-.58838-.38477-.88428-.96192-1.147l-.20019-.08935c-.51758-.22754-1.00684-.44287-1.00684-.93262a.68447.68447,0,0,1,.69043-.65918.86173.86173,0,0,1,.66992.34522l.38379-.20508a1.18833,1.18833,0,0,0-2.18359.61963c0,.49267.24511.70752.79394,1.00244l.87891.46972a.77189.77189,0,0,1,.43652.686.86716.86716,0,0,1-.87288.8614l-.03727-.001a1.06045,1.06045,0,0,1-.93067-.54346Z" style="fill: #afafaf"/>
      </g>
      <g>
        <path d="M15.86719,144.17285a1.71726,1.71726,0,0,0-1.33887-.62988,1.61848,1.61848,0,0,0-1.55957,1.63965,1.58083,1.58083,0,0,0,1.5,1.65773q.05954.003.11918.00145a1.682,1.682,0,0,0,1.2793-.62012v1.14941a2.61443,2.61443,0,0,1-1.28906.30957,2.46136,2.46136,0,0,1-2.50834-2.41346l-.00045-.04453a2.48644,2.48644,0,0,1,2.453-2.51939q.05277-.00069.10554.00084a2.53139,2.53139,0,0,1,1.23926.30957Z" style="fill: #afafaf"/>
        <path d="M14.57813,147.88086a2.689,2.689,0,0,1-.04122-5.37784q.04551-.00034.091.00084a2.73176,2.73176,0,0,1,1.33984.33691.20053.20053,0,0,1,.09961.17286v1.15918a.20026.20026,0,0,1-.35058.13183,1.51526,1.51526,0,0,0-1.18848-.56152,1.41962,1.41962,0,0,0-1.35937,1.43945A1.37665,1.37665,0,0,0,14.46,146.63979q.06386.00385.12786.00178a1.46989,1.46989,0,0,0,1.12988-.55322.20026.20026,0,0,1,.34961.1333v1.14941a.20076.20076,0,0,1-.10547.17627A2.81407,2.81407,0,0,1,14.57813,147.88086Zm.0498-4.97656a2.28712,2.28712,0,0,0-2.35751,2.2145q-.00162.05192-.00089.10386a2.25907,2.25907,0,0,0,2.25976,2.25836l.04884-.00055a2.44892,2.44892,0,0,0,1.08886-.23193v-.57129a1.83693,1.83693,0,1,1-1.13867-3.33448,1.86494,1.86494,0,0,1,1.13867.37256v-.58252A2.39186,2.39186,0,0,0,14.62793,142.9043Z" style="fill: #afafaf"/>
      </g>
      <g>
        <path d="M17.874,145.332a1.47234,1.47234,0,0,0,1.39148,1.549l.0177.00084a1.53018,1.53018,0,0,0,1.39942-.91016l.75976.42969a2.43372,2.43372,0,0,1-2.16894,1.27929,2.27331,2.27331,0,0,1-2.30612-2.24q-.00159-.10908.00729-.218a2.23518,2.23518,0,0,1,2.2793-2.51855c1.48828,0,2.18847,1.09961,2.18847,2.48828v.13965Zm2.669-.67969a1.263,1.263,0,0,0-1.28906-1.16894,1.33915,1.33915,0,0,0-1.33008,1.16894Z" style="fill: #afafaf"/>
        <path d="M19.27344,147.88086a2.47037,2.47037,0,0,1-2.50591-2.43431q-.00162-.112.00691-.22389a2.41852,2.41852,0,0,1,2.4795-2.71875c1.47363,0,2.38867,1.03027,2.38867,2.68847v.13965a.20049.20049,0,0,1-.2002.2002H18.08984a1.237,1.237,0,0,0,1.19336,1.14941,1.33942,1.33942,0,0,0,1.22852-.81348.19963.19963,0,0,1,.26953-.0708l.75977.42969a.20051.20051,0,0,1,.07714.26953A2.62634,2.62634,0,0,1,19.27344,147.88086Zm-.01953-4.97656a2.02836,2.02836,0,0,0-2.07911,2.31836,2.06569,2.06569,0,0,0,2.09864,2.25781,2.23142,2.23142,0,0,0,1.89258-1.00586l-.416-.23535a1.64952,1.64952,0,0,1-1.4668.84277,1.66824,1.66824,0,0,1-1.61033-1.72421l.001-.02335a.20534.20534,0,0,1,.05762-.14306.201.201,0,0,1,.14257-.05957h3.36817C21.22168,143.73535,20.48145,142.9043,19.25391,142.9043Zm1.28906,1.94824H17.92383a.20042.20042,0,0,1-.19727-.23291,1.54485,1.54485,0,0,1,1.52735-1.33643,1.46283,1.46283,0,0,1,1.48632,1.33789.19722.19722,0,0,1-.04492.16114.201.201,0,0,1-.15231.07031Zm-2.36231-.40039H20.292a1.02276,1.02276,0,0,0-1.03808-.76856A1.11684,1.11684,0,0,0,18.18066,144.45215Z" style="fill: #afafaf"/>
      </g>
      <g>
        <path d="M23.61035,143.47363h.01953a1.59658,1.59658,0,0,1,1.40918-.76953c1.31934,0,1.65918.88965,1.65918,2.02832v2.78906h-.89941v-2.67871c0-.7998-.11035-1.33886-1.0293-1.33886-1.15918,0-1.15918,1.01855-1.15918,1.86816v2.14941h-.89941v-4.67773h.89941Z" style="fill: #afafaf"/>
        <path d="M26.69824,147.72168h-.89941a.20047.20047,0,0,1-.2002-.2002v-2.67871c0-.84033-.125-1.13867-.8291-1.13867-.89258,0-.959.66016-.959,1.668v2.14941a.20047.20047,0,0,1-.2002.2002h-.89941a.20047.20047,0,0,1-.2002-.2002v-4.67773a.20048.20048,0,0,1,.2002-.20019h.89941a.20047.20047,0,0,1,.2002.20019v.1001a1.8792,1.8792,0,0,1,1.22851-.43994c1.251,0,1.85938.729,1.85938,2.22851v2.78906A.20046.20046,0,0,1,26.69824,147.72168Zm-.69922-.40039h.499v-2.58887c0-1.28174-.43653-1.82812-1.459-1.82812a1.39228,1.39228,0,0,0-1.23437.667.2216.2216,0,0,1-.39453-.09765V143.044h-.499v4.27734h.499v-1.94922c0-.82373,0-2.06836,1.35937-2.06836,1.13477,0,1.22949.76026,1.22949,1.53906Z" style="fill: #afafaf"/>
      </g>
      <g>
        <path d="M28.97559,145.332a1.47234,1.47234,0,0,0,1.39146,1.549l.01772.00084a1.53016,1.53016,0,0,0,1.39941-.91016l.75977.42969a2.43376,2.43376,0,0,1-2.169,1.27929,2.27332,2.27332,0,0,1-2.30613-2.24q-.00157-.10908.0073-.218a2.23517,2.23517,0,0,1,2.2793-2.51855c1.48828,0,2.18848,1.09961,2.18848,2.48828v.13965Zm2.66894-.67969a1.263,1.263,0,0,0-1.28906-1.16894,1.33915,1.33915,0,0,0-1.33008,1.16894Z" style="fill: #afafaf"/>
        <path d="M30.375,147.88086a2.47036,2.47036,0,0,1-2.50591-2.4343q-.00164-.112.00691-.2239a2.41852,2.41852,0,0,1,2.47949-2.71875c1.47363,0,2.38867,1.03027,2.38867,2.68847v.13965a.20047.20047,0,0,1-.20019.2002H29.19141a1.237,1.237,0,0,0,1.19336,1.14941,1.3394,1.3394,0,0,0,1.22851-.81348.1994.1994,0,0,1,.26953-.0708l.75977.42969a.20053.20053,0,0,1,.07715.26953A2.62636,2.62636,0,0,1,30.375,147.88086Zm-.01953-4.97656a2.0283,2.0283,0,0,0-2.0791,2.31836,2.06569,2.06569,0,0,0,2.09863,2.25781,2.23142,2.23142,0,0,0,1.89258-1.00586l-.416-.23535a1.6495,1.6495,0,0,1-1.46679.84277,1.66825,1.66825,0,0,1-1.61034-1.72421l.001-.02335a.20529.20529,0,0,1,.05762-.14306.201.201,0,0,1,.14258-.05957h3.36816C32.32324,143.73535,31.583,142.9043,30.35547,142.9043Zm1.28906,1.94824H29.02539a.20042.20042,0,0,1-.19726-.23291,1.54484,1.54484,0,0,1,1.52734-1.33643,1.46286,1.46286,0,0,1,1.48633,1.33789.19729.19729,0,0,1-.04492.16114A.201.201,0,0,1,31.64453,144.85254Zm-2.3623-.40039h2.11132a1.02276,1.02276,0,0,0-1.03808-.76856A1.11684,1.11684,0,0,0,29.28223,144.45215Z" style="fill: #afafaf"/>
      </g>
      <g>
        <path d="M35.69141,143.91309a.69288.69288,0,0,0-.59961-.40918.48461.48461,0,0,0-.49024.459c0,.41015.54.58984,1.08985.83984.54882.25,1.07911.58984,1.07911,1.32912a1.56972,1.56972,0,0,1-1.59,1.54918l-.01941-.00037a1.72414,1.72414,0,0,1-1.61914-1.04881l.76953-.34961a.93035.93035,0,0,0,.84961.59961.67114.67114,0,0,0,.70894-.631l.00106-.02911a.5655.5655,0,0,0-.33007-.50977l-.8799-.46972c-.51953-.2793-.89941-.53906-.89941-1.17871a1.36545,1.36545,0,0,1,1.37146-1.35944l.00842.00006a1.39174,1.39174,0,0,1,1.2793.81934Z" style="fill: #afafaf"/>
        <path d="M35.16113,147.88086a1.90889,1.90889,0,0,1-1.80566-1.17822.19916.19916,0,0,1,.10351-.25293l.76954-.34961a.201.201,0,0,1,.25878.08642c.19629.36084.37891.49512.67383.49512a.47276.47276,0,0,0,.50844-.43417l.00133-.02584c0-.146-.04688-.21386-.24121-.34375l-.86231-.45947c-.53027-.28467-1.00586-.60254-1.00586-1.355a1.59126,1.59126,0,0,1,3.03907-.62793.19983.19983,0,0,1-.08594.26416l-.72949.38964a.19744.19744,0,0,1-.15625.01368.201.201,0,0,1-.11817-.10352.493.493,0,0,0-.41894-.29541.28744.28744,0,0,0-.29.25879c0,.229.35546.38525.76757.56689l.20507.09082a1.65378,1.65378,0,0,1,1.19629,1.51123,1.76133,1.76133,0,0,1-1.77289,1.74971Zm-1.35254-1.15039a1.562,1.562,0,0,0,1.35254.75,1.36525,1.36525,0,0,0,1.40856-1.3205l.00062-.02813c0-.58838-.38476-.88428-.96191-1.147l-.2002-.08935c-.51757-.22754-1.00683-.44287-1.00683-.93262a.68447.68447,0,0,1,.69043-.65918.86174.86174,0,0,1,.66992.34522l.38379-.20508a1.18834,1.18834,0,0,0-2.1836.61963c0,.49267.24512.70752.79395,1.00244l.87891.46972a.77189.77189,0,0,1,.43652.686.86717.86717,0,0,1-.8729.8614l-.03726-.001a1.06042,1.06042,0,0,1-.93066-.54346Z" style="fill: #afafaf"/>
      </g>
    </g>
    <rect x="73.74675" y="205.52047" width="30.75327" height="9.95906" style="fill: #cc4c4c"/>
    <rect x="71.84955" y="247.52048" width="32.65045" height="9.95906" style="fill: #d8bb44"/>
    <rect x="71.84955" y="289.52048" width="32.65045" height="9.95906" style="fill: #10a687"/>
    <rect x="71.84955" y="331.52048" width="32.65045" height="9.95906" style="fill: #098eb7"/>
    <path d="M11.225,0h97.55V5.40259a7.08758,7.08758,0,0,1-7.08758,7.08758H18.31258A7.08758,7.08758,0,0,1,11.225,5.40259V0Z" style="fill: #afafaf"/>
    <g>
      <g>
        <path d="M20.37891,9.01074h-1.3545L17.63086,6.69531h-.01563V9.01074H16.49609V3.26953h1.51563c1.13379,0,1.918.50195,1.918,1.72852a1.51673,1.51673,0,0,1-1.17188,1.59082ZM17.61523,5.91113h.14454c.61718,0,1.05078-.18261,1.05078-.88281,0-.708-.44922-.84473-1.043-.84473H17.6152Z" style="fill: #313131"/>
        <path d="M20.37891,9.16064h-1.3545a.1501.1501,0,0,1-.1289-.07275L17.76563,7.20947V9.01074a.15.15,0,0,1-.1501.1499H16.49609A.15.15,0,0,1,16.3457,9.011V3.26953a.15.15,0,0,1,.1501-.1499h1.51592c1.334,0,2.06836.667,2.06836,1.87842A1.724,1.724,0,0,1,19.001,6.68311l1.50293,2.24414a.15082.15082,0,0,1,.00683.15429A.14793.14793,0,0,1,20.37891,9.16064Zm-1.26953-.2998h.98828L18.63281,6.67236a.15027.15027,0,0,1,.10059-.23144,1.38056,1.38056,0,0,0,1.0459-1.44287c0-1.04737-.59473-1.57862-1.76758-1.57862H16.64648V8.86084h.81836V6.69531a.15.15,0,0,1,.1501-.1499h.00029a.17766.17766,0,0,1,.14454.07275ZM17.75977,6.061h-.14454a.15.15,0,0,1-.15039-.14961V4.18359a.15.15,0,0,1,.1501-.1499h.15264c.55566,0,1.19336.11279,1.19336.99463C18.96094,6.061,18.05664,6.061,17.75977,6.061Zm.00586-1.72754V5.76123c.64355-.00146.89453-.207.89453-.73291,0-.51269-.2334-.69482-.89258-.69482Z" style="fill: #313131"/>
      </g>
      <g>
        <path d="M23.39063,4.24414V5.50781h1.78222v.97461H23.39063V8.03613h1.85058v.97461H22.27148V3.26953h2.96973v.97461Z" style="fill: #313131"/>
        <path d="M25.24121,9.16064H22.27148a.15.15,0,0,1-.15039-.14961V3.26953a.15.15,0,0,1,.1501-.1499h2.97a.15.15,0,0,1,.15039.14961v.9749a.15.15,0,0,1-.1501.1499H23.541v.96387h1.63183a.15.15,0,0,1,.15039.14961v.9749a.15.15,0,0,1-.1501.1499H23.541V7.88623h1.70019a.15.15,0,0,1,.15039.14961v.9749a.15.15,0,0,1-.1501.1499Zm-2.81933-.2998h2.66894V8.186H23.39063a.15006.15006,0,0,1-.1504-.1497V6.48242a.15.15,0,0,1,.1501-.1499h1.63213V5.65771H23.39063a.15.15,0,0,1-.1504-.1496v-1.264a.15.15,0,0,1,.1501-.1499h1.70049V3.41943H22.42188Z" style="fill: #313131"/>
      </g>
      <g>
        <path d="M29.3252,7.18262h.01464l1.14258-3.98926h.66211L32.332,7.18262h.01563l1.127-3.91309h1.17285L32.70508,9.125h-.82227l-1.1416-3.75391h-.01562L29.64453,9.125h-.82226L26.99512,3.26953H28.168Z" style="fill: #313131"/>
        <path d="M32.70508,9.2749h-.82227a.14972.14972,0,0,1-.14355-.10644l-1.002-3.29541-.9482,3.29345a.15058.15058,0,0,1-.14453.1084h-.82226a.1505.1505,0,0,1-.14356-.105L26.85156,3.31445a.1519.1519,0,0,1,.02246-.13379.14991.14991,0,0,1,.1211-.061H28.168a.14911.14911,0,0,1,.14355.10742L29.33008,6.6709l1.00781-3.519a.15029.15029,0,0,1,.14453-.1084h.66211a.14926.14926,0,0,1,.14356.10693l1.0498,3.52539L33.33008,3.228a.15058.15058,0,0,1,.14453-.1084h1.17285a.15128.15128,0,0,1,.12207.062.15457.15457,0,0,1,.02051.13525L32.84766,9.17236A.15079.15079,0,0,1,32.70508,9.2749Zm-.71094-.2998h.60254l1.84277-5.55567h-.85156l-1.0957,3.80469a.16815.16815,0,0,1-.30371.00147L31.03223,3.34326H30.5957L29.48438,7.22412a.16738.16738,0,0,1-.30274.001l-1.126-3.80567H27.1992l1.7334,5.55567h.59863L30.581,5.32961a.16815.16815,0,0,1,.30372-.00195Z" style="fill: #313131"/>
      </g>
      <g>
        <path d="M37.59961,9.01074H36.48047V3.26953h1.11914Z" style="fill: #313131"/>
        <path d="M37.59961,9.16064H36.48047a.15.15,0,0,1-.15039-.14961V3.26953a.15.15,0,0,1,.1501-.1499h1.11943a.15.15,0,0,1,.15039.14961v5.7415a.15.15,0,0,1-.1501.1499Zm-.96875-.2998h.81836V3.41943h-.81836Z" style="fill: #313131"/>
      </g>
      <g>
        <path d="M39.93945,3.11719h.80664l3.02344,4.01269h.01465V3.26953H44.9043V9.125h-.80762L41.07422,5.1123h-.01563V9.01074H39.93945Z" style="fill: #313131"/>
        <path d="M44.9043,9.2749h-.80762a.15076.15076,0,0,1-.12012-.05957L41.209,5.54V9.0107a.15.15,0,0,1-.1501.1499H39.93945a.15.15,0,0,1-.15039-.14961V3.11719a.15.15,0,0,1,.1501-.1499h.80693a.15076.15076,0,0,1,.12012.05957l2.76758,3.67431V3.26953a.15.15,0,0,1,.1501-.1499H44.9043a.15.15,0,0,1,.15039.14961V9.125a.15.15,0,0,1-.1501.1499Zm-.73242-.2998h.582V3.41943h-.81934V7.12988a.15.15,0,0,1-.15009.14991h-.0003a.1806.1806,0,0,1-.13477-.05958L40.6709,3.26709h-.58106V8.86084h.81836V5.1123a.15.15,0,0,1,.1501-.1499h.00029a.18278.18278,0,0,1,.13575.05957Z" style="fill: #313131"/>
      </g>
      <g>
        <path d="M55.35742,9.25391l-.39551-.4795a2.59287,2.59287,0,0,1-1.42382.38868A2.89,2.89,0,0,1,50.69421,6.2277q.00075-.04747.00306-.09489a2.84542,2.84542,0,1,1,5.68066,0,3.38522,3.38522,0,0,1-.67773,2.07813l.78418.92871ZM54.8623,7.29a1.98452,1.98452,0,0,0,.3584-1.18848,1.70434,1.70434,0,1,0-3.36621.09961,1.73544,1.73544,0,0,0,1.58325,1.87532q.05009.00423.10035.00555a1.227,1.227,0,0,0,.60156-.19043L53.19531,6.8027l1.15723-.09179Z" style="fill: #313131"/>
        <path d="M55.35742,9.40381a.14675.14675,0,0,1-.11523-.05469l-.3125-.37842a2.81649,2.81649,0,0,1-1.3916.34229,3.02224,3.02224,0,0,1-2.99523-3.049q.00059-.06564.004-.13119a2.99555,2.99555,0,1,1,5.98144,0,3.58234,3.58234,0,0,1-.63672,2.07227l.707.83789a.14773.14773,0,0,1,.02442.15283.14965.14965,0,0,1-.124.09326l-1.127.11426Zm-.39551-.7793a.148.148,0,0,1,.11524.05469l.34473.41748.76464-.07764-.60058-.71142a.15.15,0,0,1-.00489-.18848,3.25377,3.25377,0,0,0,.64649-1.98633,2.69533,2.69533,0,1,0-5.37988,0,2.72866,2.72866,0,0,0,2.57251,2.87635q.05891.00328.11792.004a2.44385,2.44385,0,0,0,1.34082-.36377A.15253.15253,0,0,1,54.96191,8.62451Zm-1.42382-.39258a1.88374,1.88374,0,0,1-1.83928-1.92716q.00122-.05187.00528-.1036a1.85316,1.85316,0,1,1,3.667-.09961,2.10462,2.10462,0,0,1-.3916,1.28272.152.152,0,0,1-.11426.05566A.12906.12906,0,0,1,54.75,7.38916l-.46-.523-.78711.0625.75.86475a.15081.15081,0,0,1,.03516.11914.14768.14768,0,0,1-.06739.105A1.37818,1.37818,0,0,1,53.53809,8.23193Zm0-3.89843a1.69943,1.69943,0,0,0-1.535,1.84928l.00181.01839a1.59423,1.59423,0,0,0,1.45055,1.726q.04125.00359.08266.005a.98189.98189,0,0,0,.36425-.085L53.082,6.90088a.14995.14995,0,0,1,.10156-.24756l1.15723-.0918a.1442.1442,0,0,1,.124.0503l.38184.43359a2.02329,2.02329,0,0,0,.22363-.94385A1.6916,1.6916,0,0,0,53.53809,4.3335Z" style="fill: #313131"/>
      </g>
      <g>
        <path d="M58.42285,3.26953H59.542V6.48242c0,.708.06055,1.70606,1.0127,1.70606s1.01269-.99805,1.01269-1.70606V3.26953h1.11914v3.4336c0,1.40136-.59375,2.46-2.13183,2.46s-2.13184-1.0586-2.13184-2.46Z" style="fill: #313131"/>
        <path d="M60.55469,9.313c-1.47168,0-2.28223-.92676-2.28223-2.60986V3.26953a.15.15,0,0,1,.1501-.1499H59.542a.15.15,0,0,1,.15039.14961V6.48242c0,.80811.1045,1.55615.86231,1.55615s.8623-.748.8623-1.55615V3.26953a.15.15,0,0,1,.1501-.1499h1.11943a.15.15,0,0,1,.15039.14961V6.70313C62.83691,8.38623,62.02637,9.313,60.55469,9.313ZM58.57324,3.41943v3.2837c0,1.05371.34375,2.31005,1.98145,2.31005s1.98144-1.25634,1.98144-2.31005V3.41943h-.81836v3.063c0,.55518,0,1.856-1.16308,1.856S59.3916,7.0376,59.3916,6.48242v-3.063Z" style="fill: #313131"/>
      </g>
      <g>
        <path d="M66.17871,7.7998l-.47266,1.21094H64.52637l2.23828-5.89355h.86815l2.17775,5.89355H68.61523l-.4414-1.21094Zm.9668-3h-.01563l-.63183,2.08594h1.36328Z" style="fill: #313131"/>
        <path d="M69.81055,9.16064H68.61523a.14928.14928,0,0,1-.14062-.09863l-.40527-1.1123H66.28125L65.8457,9.06543a.14983.14983,0,0,1-.13965.09521H64.52637a.151.151,0,0,1-.14064-.20312L66.624,3.064a.15081.15081,0,0,1,.14063-.09667h.86816a.14978.14978,0,0,1,.14063.09814L69.95117,8.959a.14958.14958,0,0,1-.14062.20166Zm-1.09082-.2998h.875L67.52832,3.26709h-.66016l-2.124,5.59375h.85939l.43554-1.11572a.14983.14983,0,0,1,.13964-.09522h1.99512a.14925.14925,0,0,1,.14062.09864Zm-.8584-1.8252H66.49805a.15029.15029,0,0,1-.14357-.19335l.63185-2.08594a.16811.16811,0,0,1,.30078-.00537l.71582,2.08593a.14944.14944,0,0,1-.1416.19873Zm-1.16113-.2998h.95117l-.50489-1.47217Z" style="fill: #313131"/>
      </g>
      <g>
        <path d="M71.67969,3.11719h.80664l3.02344,4.01269h.01464V3.26953h1.12011V9.125h-.80761L72.81445,5.1123h-.01561V9.01074H71.67969Z" style="fill: #313131"/>
        <path d="M76.64453,9.2749h-.80762a.15077.15077,0,0,1-.12011-.05957L72.94922,5.54V9.0107a.15.15,0,0,1-.1501.1499H71.67969A.15.15,0,0,1,71.5293,9.011V3.11719a.15.15,0,0,1,.1501-.1499h.80693a.1508.1508,0,0,1,.12012.05957L75.374,6.70117V3.26953a.15.15,0,0,1,.1501-.1499h1.12041a.15.15,0,0,1,.15039.14961V9.125a.15.15,0,0,1-.1501.1499Zm-.73242-.2998h.582V3.41943H75.6748V7.12988a.15.15,0,0,1-.1501.14991h-.00029a.18062.18062,0,0,1-.13476-.05958L72.41113,3.26709h-.581V8.86084h.81836V5.1123a.15.15,0,0,1,.1501-.1499h.00029a.18276.18276,0,0,1,.13574.05957Z" style="fill: #313131"/>
      </g>
      <g>
        <path d="M80.85156,9.01074H79.73242V4.24414H78.5752V3.26953h3.43359v.97461H80.85156Z" style="fill: #313131"/>
        <path d="M80.85156,9.16064H79.73242A.15.15,0,0,1,79.582,9.011V4.394H78.5752a.15.15,0,0,1-.1504-.1496V3.26953a.15.15,0,0,1,.15011-.1499h3.43388a.15.15,0,0,1,.15039.14961v.9749a.15.15,0,0,1-.1501.1499H81.00195v4.6167a.15.15,0,0,1-.1501.1499Zm-.96875-.2998h.81836V4.24414a.15.15,0,0,1,.1501-.1499H81.8584V3.41943H78.72559v.67481h1.00683a.15.15,0,0,1,.15039.14961v4.617Z" style="fill: #313131"/>
      </g>
      <g>
        <path d="M85.06543,9.01074H83.94629V3.26953h1.11914Z" style="fill: #313131"/>
        <path d="M85.06543,9.16064H83.94629A.15.15,0,0,1,83.7959,9.011V3.26953a.15.15,0,0,1,.1501-.1499h1.11943a.15.15,0,0,1,.15039.14961v5.7415a.15.15,0,0,1-.1501.1499Zm-.96875-.2998H84.915V3.41943h-.81836Z" style="fill: #313131"/>
      </g>
      <g>
        <path d="M91.19727,8.03613v.97461h-4.165l2.52832-4.7666H87.4209V3.26953H91.334l-2.5205,4.7666Z" style="fill: #313131"/>
        <path d="M91.19727,9.16064h-4.165a.15012.15012,0,0,1-.1289-.07275.15228.15228,0,0,1-.00391-.14746L89.31152,4.394H87.4209a.15.15,0,0,1-.15039-.14961V3.26953a.15.15,0,0,1,.1501-.1499H91.334a.15077.15077,0,0,1,.12891.07226.15328.15328,0,0,1,.0039.148L89.0625,7.88623h2.13477a.15.15,0,0,1,.15039.14961v.9749a.15.15,0,0,1-.1501.1499Zm-3.916-.2998h3.76564V8.186h-2.2334a.15076.15076,0,0,1-.12891-.07227.15325.15325,0,0,1-.00391-.148L91.085,3.41943H87.57129v.67481h1.98926a.15013.15013,0,0,1,.1289.07275.15231.15231,0,0,1,.0039.14746Z" style="fill: #313131"/>
      </g>
      <g>
        <path d="M94.42871,4.24414V5.50781h1.78223v.97461H94.42871V8.03613H96.2793v.97461H93.30957V3.26953H96.2793v.97461Z" style="fill: #313131"/>
        <path d="M96.2793,9.16064H93.30957a.15.15,0,0,1-.15039-.14961V3.26953a.15.15,0,0,1,.1501-.1499h2.97a.15.15,0,0,1,.15039.14961v.9749a.15.15,0,0,1-.1501.1499H94.5791v.96387H96.211a.15.15,0,0,1,.15039.14961v.9749a.15.15,0,0,1-.1501.1499H94.5791V7.88623h1.7002a.15.15,0,0,1,.1504.14961v.9749a.15.15,0,0,1-.15011.1499ZM93.46,8.86084h2.669V8.186H94.42879a.15.15,0,0,1-.15039-.14961v-1.554a.15.15,0,0,1,.1501-.1499h1.63214V5.65771H94.42871a.15.15,0,0,1-.15039-.14961v-1.264a.15.15,0,0,1,.1501-.1499h1.70049V3.41943H93.46Z" style="fill: #313131"/>
      </g>
      <g>
        <path d="M102.43457,9.01074h-1.35449L99.68652,6.69531H99.6709V9.01074H98.55176V3.26953h1.51562c1.13378,0,1.918.50195,1.918,1.72852a1.51672,1.51672,0,0,1-1.17186,1.59082ZM99.6709,5.91113h.14453c.61719,0,1.05078-.18261,1.05078-.88281,0-.708-.44922-.84473-1.043-.84473H99.6709Z" style="fill: #313131"/>
        <path d="M102.43457,9.16064h-1.35449a.15013.15013,0,0,1-.12891-.07275L99.82129,7.20947V9.01074a.15.15,0,0,1-.1501.1499H98.55176a.15.15,0,0,1-.15039-.14961V3.26953a.15.15,0,0,1,.1501-.1499h1.51591c1.334,0,2.06835.667,2.06835,1.87842a1.72394,1.72394,0,0,1-1.0791,1.68506l1.50293,2.24414a.15084.15084,0,0,1,.00685.15429A.148.148,0,0,1,102.43457,9.16064Zm-1.26953-.2998h.98828l-1.46484-2.18848a.15026.15026,0,0,1,.10057-.23144,1.38055,1.38055,0,0,0,1.0459-1.44287c0-1.04737-.59472-1.57862-1.76757-1.57862H98.70215V8.86084h.81836V6.69531a.15.15,0,0,1,.1501-.1499h.00029a.17763.17763,0,0,1,.14453.07275ZM99.81543,6.061H99.6709a.15.15,0,0,1-.15039-.14961V4.18359a.15.15,0,0,1,.1501-.1499h.15263c.55567,0,1.19336.11279,1.19336.99463C101.0166,6.061,100.1123,6.061,99.81543,6.061Zm.00586-1.72754V5.76123c.64355-.00146.89453-.207.89453-.73291,0-.51269-.2334-.69482-.89258-.69482Z" style="fill: #313131"/>
      </g>
    </g>
    <g>
      <g>
        <path d="M72.0625,83.34521a.4994.4994,0,0,1-.44141-.26513l-.97264-1.82617a.5.5,0,1,1,.88281-.46973h0l.97265,1.82617a.49965.49965,0,0,1-.44141.73486Z" style="fill: #afafaf"/>
        <path d="M78.71191,77.94287a.4968.4968,0,0,1-.3164-.11279L76.792,76.52148a.5.5,0,0,1,.63281-.77441l1.60353,1.30859a.5.5,0,0,1-.31641.88721Z" style="fill: #afafaf"/>
        <path d="M83.10156,70.38428a.49715.49715,0,0,1-.17285-.03076l-1.94141-.71534a.50006.50006,0,0,1,.34572-.93847l1.94139.71533a.50012.50012,0,0,1-.17285.96924Z" style="fill: #afafaf"/>
        <path d="M84.88086,61.73389h-.01563l-2.06739-.063a.5011.5011,0,0,1-.48436-.51514.48771.48771,0,0,1,.48977-.48565l.02584.00079,2.06739.063a.50012.50012,0,0,1-.01562,1Z" style="fill: #afafaf"/>
        <path d="M81.65332,53.72705a.50022.50022,0,0,1-.168-.97119l1.94922-.69336a.50023.50023,0,1,1,.33594.94238h0l-1.94922.69336A.50641.50641,0,0,1,81.65332,53.72705Z" style="fill: #afafaf"/>
        <path d="M77.80469,46.9458a.49979.49979,0,0,1-.32228-.88232l1.582-1.33252a.5.5,0,0,1,.64454.76465l-1.582,1.33252A.4975.4975,0,0,1,77.80469,46.9458Z" style="fill: #afafaf"/>
        <path d="M71.81152,41.88428a.49993.49993,0,0,1-.43261-.751L72.417,39.34375a.50016.50016,0,1,1,.86524.502L72.24415,41.6353A.50027.50027,0,0,1,71.81152,41.88428Z" style="fill: #afafaf"/>
        <path d="M64.23145,39.09033a.51644.51644,0,0,1-.08985-.00781.50016.50016,0,0,1-.40332-.58057l.36621-2.03662a.50006.50006,0,1,1,.98438.17676l-.36621,2.03662A.5.5,0,0,1,64.23145,39.09033Z" style="fill: #afafaf"/>
        <path d="M55.80078,39.08447a.49962.49962,0,0,1-.49121-.41211l-.36328-2.03711a.5.5,0,0,1,.98437-.17578l.36329,2.03711a.50009.50009,0,0,1-.49317.58789Z" style="fill: #afafaf"/>
        <path d="M48.21582,41.86865a.49971.49971,0,0,1-.43262-.24951l-1.03613-1.7915a.49991.49991,0,1,1,.86523-.501l1.03614,1.7915a.49937.49937,0,0,1-.18154.68248l-.00108.00063A.49339.49339,0,0,1,48.21582,41.86865Z" style="fill: #afafaf"/>
        <path d="M42.21582,46.92236a.4954.4954,0,0,1-.32227-.11816l-1.581-1.335a.49965.49965,0,0,1,.64453-.76367l1.58106,1.335a.49978.49978,0,0,1-.32227.88183Z" style="fill: #afafaf"/>
        <path d="M38.35742,53.69775a.495.495,0,0,1-.168-.02929l-1.94824-.69629a.49978.49978,0,0,1,.33286-.94251l.00309.0011,1.94823.69629a.49988.49988,0,0,1-.168.9707Z" style="fill: #afafaf"/>
        <path d="M35.11719,61.69922a.50011.50011,0,0,1-.01465-1l2.06934-.05859a.53965.53965,0,0,1,.51367.48583.50047.50047,0,0,1-.48535.51417l-2.06934.05859Z" style="fill: #afafaf"/>
        <path d="M36.85059,70.36621a.5.5,0,0,1-.16895-.9707l1.94727-.70069a.50011.50011,0,1,1,.34251.93975l-.00462.00165-1.94727.70069A.49636.49636,0,0,1,36.85059,70.36621Z" style="fill: #afafaf"/>
        <path d="M41.18066,77.9541a.49975.49975,0,0,1-.31347-.88916l1.61133-1.29785a.49971.49971,0,1,1,.62695.77832l-1.61133,1.29785A.49515.49515,0,0,1,41.18066,77.9541Z" style="fill: #afafaf"/>
      </g>
      <path d="M71.30664,81.31641a.49984.49984,0,0,1-.24805-.93409,22.333,22.333,0,1,0-22.165-.02735.5.5,0,1,1-.498.86719h0a23.33316,23.33316,0,1,1,23.15918.02832A.49461.49461,0,0,1,71.30664,81.31641Z" style="fill: #afafaf"/>
    </g>
    <g>
      <path d="M50.5,182.5a.49482.49482,0,0,1,.48957-.5H51a.50158.50158,0,0,1,.5.5h0a.5019.5019,0,0,1-.5.5h0a.4951.4951,0,0,1-.5-.49017Zm-3.00977,0a.49482.49482,0,0,1,.48957-.5h.01043a.49541.49541,0,0,1,.5.49078V182.5h0a.49571.49571,0,0,1-.49138.5h-.00862a.4951.4951,0,0,1-.5-.49017Zm-3,0a.49482.49482,0,0,1,.48957-.5h.01043a.50156.50156,0,0,1,.5.5h0a.5019.5019,0,0,1-.5.5h0a.4951.4951,0,0,1-.5-.49017Zm-3.01074,0a.49542.49542,0,0,1,.4908-.5h.0092a.4948.4948,0,0,1,.5.48955V182.5h0a.4951.4951,0,0,1-.49015.5h-.00985a.49571.49571,0,0,1-.5-.49138Zm-3,0a.49542.49542,0,0,1,.4908-.5h.0092a.501.501,0,0,1,.5.5h0a.50126.50126,0,0,1-.5.5h0a.49571.49571,0,0,1-.5-.49138Zm-3,0a.49335.49335,0,0,1,.48665-.5l.00359,0h0a.49481.49481,0,0,1,.5.48956V182.5h0a.49512.49512,0,0,1-.49017.5h-.00983a.49365.49365,0,0,1-.49027-.497Zm-3.00976,0a.4948.4948,0,0,1,.48955-.5h.01045a.49481.49481,0,0,1,.5.48956V182.5h0a.49511.49511,0,0,1-.49017.5h-.00983a.49509.49509,0,0,1-.5-.49014Z" style="fill: #afafaf"/>
      <path d="M54,183a.411.411,0,0,1-.19043-.04.35969.35969,0,0,1-.16016-.10987A.35228.35228,0,0,1,53.54,182.69a.403.403,0,0,1-.04-.19.47013.47013,0,0,1,.14941-.3501.50143.50143,0,0,1,.7002,0,.48271.48271,0,0,1,.01779.68241l-.01779.01779a.35459.35459,0,0,1-.16016.10986A.4069.4069,0,0,1,54,183Z" style="fill: #afafaf"/>
    </g>
    <g>
      <path d="M50.5,210.5a.49482.49482,0,0,1,.48957-.5H51a.50158.50158,0,0,1,.5.5h0a.5019.5019,0,0,1-.5.5h0a.4951.4951,0,0,1-.5-.49017Zm-3.00977,0a.49482.49482,0,0,1,.48957-.5h.01043a.49541.49541,0,0,1,.5.49078V210.5h0a.49571.49571,0,0,1-.49138.5h-.00862a.4951.4951,0,0,1-.5-.49017Zm-3,0a.49482.49482,0,0,1,.48957-.5h.01043a.50156.50156,0,0,1,.5.5h0a.5019.5019,0,0,1-.5.5h0a.4951.4951,0,0,1-.5-.49017Zm-3.01074,0a.49542.49542,0,0,1,.4908-.5h.0092a.4948.4948,0,0,1,.5.48955V210.5h0a.4951.4951,0,0,1-.49015.5h-.00985a.49571.49571,0,0,1-.5-.49138Zm-3,0a.49542.49542,0,0,1,.4908-.5h.0092a.501.501,0,0,1,.5.5h0a.50126.50126,0,0,1-.5.5h0a.49571.49571,0,0,1-.5-.49138Zm-3,0a.49335.49335,0,0,1,.48665-.5l.00359,0h0a.49481.49481,0,0,1,.5.48956V210.5h0a.49512.49512,0,0,1-.49017.5h-.00983a.49365.49365,0,0,1-.49027-.497Zm-3.00976,0a.4948.4948,0,0,1,.48955-.5h.01045a.49481.49481,0,0,1,.5.48956V210.5h0a.49511.49511,0,0,1-.49017.5h-.00983a.49509.49509,0,0,1-.5-.49014Z" style="fill: #afafaf"/>
      <path d="M54,211a.47318.47318,0,0,1-.35059-.1499.35231.35231,0,0,1-.10937-.16016.47051.47051,0,0,1,0-.37988.35231.35231,0,0,1,.10937-.16016.35975.35975,0,0,1,.16016-.10986.49711.49711,0,0,1,.37988,0,.35459.35459,0,0,1,.16016.10986A.50006.50006,0,0,1,54,211Z" style="fill: #afafaf"/>
    </g>
    <g>
      <path d="M50.5,154.5a.501.501,0,0,1,.5-.5h0a.49541.49541,0,0,1,.5.49078V154.5h0a.49571.49571,0,0,1-.49138.5H51A.50126.50126,0,0,1,50.5,154.5Zm-3,0a.501.501,0,0,1,.5-.5h0a.49541.49541,0,0,1,.5.49078V154.5h0a.49571.49571,0,0,1-.49138.5H48A.50126.50126,0,0,1,47.5,154.5Zm-2.99023,0a.4948.4948,0,0,1,.48954-.5h.01046a.50158.50158,0,0,1,.5.5h0a.5019.5019,0,0,1-.5.5h0a.49511.49511,0,0,1-.5-.49016Zm-3,0a.50156.50156,0,0,1,.5-.5h0a.49481.49481,0,0,1,.5.48956V154.5h0a.49512.49512,0,0,1-.49017.5h-.00983A.5019.5019,0,0,1,41.50977,154.5Zm-3,0a.50156.50156,0,0,1,.5-.5h0a.49481.49481,0,0,1,.5.48956V154.5h0a.49512.49512,0,0,1-.49017.5h-.00983A.5019.5019,0,0,1,38.50977,154.5Zm-2.99024,0a.49541.49541,0,0,1,.49078-.5h.00922a.501.501,0,0,1,.5.5h0a.50126.50126,0,0,1-.5.5h0a.49571.49571,0,0,1-.5-.49138Zm-3,0a.49541.49541,0,0,1,.49078-.5h.00922a.501.501,0,0,1,.5.5h0a.50126.50126,0,0,1-.5.5h0a.49571.49571,0,0,1-.5-.49138Zm-3,0a.50158.50158,0,0,1,.5-.5h0a.49481.49481,0,0,1,.5.48956V154.5h0a.49511.49511,0,0,1-.49017.5h-.00983A.5019.5019,0,0,1,29.51953,154.5Zm-3,0a.50158.50158,0,0,1,.5-.5h0a.49481.49481,0,0,1,.5.48956V154.5h0a.49511.49511,0,0,1-.49017.5h-.00983A.5019.5019,0,0,1,26.51953,154.5Zm-2.99023,0a.49541.49541,0,0,1,.49078-.5h.00922a.501.501,0,0,1,.5.5h0a.50128.50128,0,0,1-.5.5h0a.49571.49571,0,0,1-.5-.49138Zm-3,0a.49541.49541,0,0,1,.49078-.5h.00922a.501.501,0,0,1,.5.5h0a.50128.50128,0,0,1-.5.5h0a.49571.49571,0,0,1-.5-.49138Zm-3,0a.49541.49541,0,0,1,.49078-.5h.00922a.49481.49481,0,0,1,.5.48956V154.5h0a.49512.49512,0,0,1-.49017.5H18.0293a.49571.49571,0,0,1-.5-.49138Zm-3,0a.50158.50158,0,0,1,.5-.5h0a.504.504,0,0,1,.51071.49719l0,.00281h0a.50426.50426,0,0,1-.50846.5l-.00228,0h0A.5019.5019,0,0,1,14.5293,154.5Zm-2.98926,0a.49482.49482,0,0,1,.48957-.5H12.04a.50158.50158,0,0,1,.5.5h0a.5019.5019,0,0,1-.5.5h0a.49512.49512,0,0,1-.5-.49013V154.5Zm-3,0a.49482.49482,0,0,1,.48957-.5H9.04a.50158.50158,0,0,1,.5.5h0a.5019.5019,0,0,1-.5.5h0a.49512.49512,0,0,1-.5-.49013V154.5Zm-3,0a.501.501,0,0,1,.5-.5h0a.49541.49541,0,0,1,.5.49078V154.5h0a.49571.49571,0,0,1-.49138.5H6.04a.50127.50127,0,0,1-.5-.5Zm-2.99024,0a.49272.49272,0,0,1,.4854-.5l.0048,0h0a.49541.49541,0,0,1,.5.49078V154.5h0a.49571.49571,0,0,1-.49138.5H3.04a.493.493,0,0,1-.49024-.49574Z" style="fill: #afafaf"/>
      <path d="M54,155a.51138.51138,0,0,1-.5-.5.40165.40165,0,0,1,.04-.18994.44428.44428,0,0,1,.26953-.27.49711.49711,0,0,1,.37988,0,.43736.43736,0,0,1,.16016.09961.46475.46475,0,0,1,.11035.17041.4294.4294,0,0,1,.04.19.51319.51319,0,0,1-.5.5Z" style="fill: #afafaf"/>
    </g>
    <g>
      <path d="M50.5,238.5a.49482.49482,0,0,1,.48957-.5H51a.50158.50158,0,0,1,.5.5h0a.5019.5019,0,0,1-.5.5h0a.4951.4951,0,0,1-.5-.49017Zm-3.00977,0a.49482.49482,0,0,1,.48957-.5h.01043a.49541.49541,0,0,1,.5.49078V238.5h0a.49571.49571,0,0,1-.49138.5h-.00862a.4951.4951,0,0,1-.5-.49017Zm-3,0a.49482.49482,0,0,1,.48957-.5h.01043a.50156.50156,0,0,1,.5.5h0a.5019.5019,0,0,1-.5.5h0a.4951.4951,0,0,1-.5-.49017Zm-3.01074,0a.49542.49542,0,0,1,.4908-.5h.0092a.4948.4948,0,0,1,.5.48955V238.5h0a.4951.4951,0,0,1-.49015.5h-.00985a.49571.49571,0,0,1-.5-.49138Zm-3,0a.49542.49542,0,0,1,.4908-.5h.0092a.501.501,0,0,1,.5.5h0a.50126.50126,0,0,1-.5.5h0a.49571.49571,0,0,1-.5-.49138Zm-3,0a.49335.49335,0,0,1,.48665-.5l.00359,0h0a.49481.49481,0,0,1,.5.48956V238.5h0a.49512.49512,0,0,1-.49017.5h-.00983a.49365.49365,0,0,1-.49027-.497Zm-3.00976,0a.4948.4948,0,0,1,.48955-.5h.01045a.49481.49481,0,0,1,.5.48956V238.5h0a.49511.49511,0,0,1-.49017.5h-.00983a.49509.49509,0,0,1-.5-.49014Z" style="fill: #afafaf"/>
      <path d="M54,239a.411.411,0,0,1-.19043-.04.35969.35969,0,0,1-.16016-.10987A.35228.35228,0,0,1,53.54,238.69a.403.403,0,0,1-.04-.19.47013.47013,0,0,1,.14941-.3501.35975.35975,0,0,1,.16016-.10986.49711.49711,0,0,1,.37988,0,.35459.35459,0,0,1,.16016.10986.48271.48271,0,0,1,.01779.68241l-.01779.01779a.35459.35459,0,0,1-.16016.10986A.4069.4069,0,0,1,54,239Z" style="fill: #afafaf"/>
    </g>
    <g>
      <path d="M50.5,266.5a.501.501,0,0,1,.5-.5h0a.49543.49543,0,0,1,.5.49078V266.5h0a.4957.4957,0,0,1-.49138.5H51A.50126.50126,0,0,1,50.5,266.5Zm-3,0a.501.501,0,0,1,.5-.5h0a.49543.49543,0,0,1,.5.49078V266.5h0a.4957.4957,0,0,1-.49138.5H48A.50126.50126,0,0,1,47.5,266.5Zm-2.99023,0a.49481.49481,0,0,1,.48954-.5h.01046a.50157.50157,0,0,1,.5.5h0a.50188.50188,0,0,1-.5.5h0a.49511.49511,0,0,1-.5-.49014Zm-3,0a.50156.50156,0,0,1,.5-.5h0a.49482.49482,0,0,1,.5.48956V266.5h0a.49511.49511,0,0,1-.49017.5h-.00983A.50188.50188,0,0,1,41.50977,266.5Zm-3,0a.50156.50156,0,0,1,.5-.5h0a.49482.49482,0,0,1,.5.48956V266.5h0a.49511.49511,0,0,1-.49017.5h-.00983A.50188.50188,0,0,1,38.50977,266.5Zm-2.99024,0a.4954.4954,0,0,1,.49078-.5h.00922a.501.501,0,0,1,.5.5h0a.50126.50126,0,0,1-.5.5h0a.49571.49571,0,0,1-.5-.49139Zm-3,0a.4954.4954,0,0,1,.49078-.5h.00922a.501.501,0,0,1,.5.5h0a.50126.50126,0,0,1-.5.5h0a.49571.49571,0,0,1-.5-.49139Zm-3,0a.50157.50157,0,0,1,.5-.5h0a.49482.49482,0,0,1,.5.48956V266.5h0a.4951.4951,0,0,1-.49017.5h-.00983A.50188.50188,0,0,1,29.51953,266.5Zm-3,0a.50157.50157,0,0,1,.5-.5h0a.49482.49482,0,0,1,.5.48956V266.5h0a.4951.4951,0,0,1-.49017.5h-.00983A.50188.50188,0,0,1,26.51953,266.5Zm-2.99023,0a.4954.4954,0,0,1,.49078-.5h.00922a.501.501,0,0,1,.5.5h0a.50128.50128,0,0,1-.5.5h0a.49571.49571,0,0,1-.5-.49139Zm-3,0a.4954.4954,0,0,1,.49078-.5h.00922a.501.501,0,0,1,.5.5h0a.50128.50128,0,0,1-.5.5h0a.49571.49571,0,0,1-.5-.49139Zm-3,0a.4954.4954,0,0,1,.49078-.5h.00922a.49482.49482,0,0,1,.5.48956V266.5h0a.49511.49511,0,0,1-.49017.5H18.0293a.49571.49571,0,0,1-.5-.49139Zm-3,0a.50157.50157,0,0,1,.5-.5h0a.504.504,0,0,1,.51071.49719l0,.00281h0a.50428.50428,0,0,1-.50846.5l-.00228,0h0A.50188.50188,0,0,1,14.5293,266.5Zm-2.98926,0a.49481.49481,0,0,1,.48957-.5H12.04a.50157.50157,0,0,1,.5.5h0a.50188.50188,0,0,1-.5.5h0a.49511.49511,0,0,1-.5-.49014V266.5Zm-3,0a.49481.49481,0,0,1,.48957-.5H9.04a.50157.50157,0,0,1,.5.5h0a.50188.50188,0,0,1-.5.5h0a.49511.49511,0,0,1-.5-.49014V266.5Zm-3,0a.501.501,0,0,1,.5-.5h0a.49543.49543,0,0,1,.5.49078V266.5h0a.4957.4957,0,0,1-.49138.5H6.04a.50125.50125,0,0,1-.5-.5Zm-2.99024,0a.49271.49271,0,0,1,.4854-.49994L3.04,266h0a.49543.49543,0,0,1,.5.49078V266.5h0a.4957.4957,0,0,1-.49138.5H3.04a.493.493,0,0,1-.49024-.49573Z" style="fill: #afafaf"/>
      <path d="M54,267a.51136.51136,0,0,1-.5-.5.40038.40038,0,0,1,.04-.18994.35249.35249,0,0,1,.10937-.16016.35988.35988,0,0,1,.16016-.10986.49711.49711,0,0,1,.37988,0,.35459.35459,0,0,1,.16016.10986A.50006.50006,0,0,1,54,267Z" style="fill: #afafaf"/>
    </g>
    <g>
      <path d="M50.5,294.5a.50126.50126,0,0,1,.5-.5h0a.50839.50839,0,0,1,.5.5h0a.50839.50839,0,0,1-.5.5h0A.50126.50126,0,0,1,50.5,294.5Zm-3.00977,0a.50126.50126,0,0,1,.5-.5h0a.5019.5019,0,0,1,.5.5h0a.5019.5019,0,0,1-.5.5h0A.50126.50126,0,0,1,47.49023,294.5Zm-3,0a.50126.50126,0,0,1,.5-.5h0a.50839.50839,0,0,1,.5.5h0a.50839.50839,0,0,1-.5.5h0A.50126.50126,0,0,1,44.49023,294.5Zm-3.01074,0a.5019.5019,0,0,1,.5-.5h0a.50126.50126,0,0,1,.5.5h0a.50126.50126,0,0,1-.5.5h0A.50188.50188,0,0,1,41.47949,294.5Zm-3,0a.5019.5019,0,0,1,.5-.5h0a.50772.50772,0,0,1,.5.5h0a.50772.50772,0,0,1-.5.5h0A.50188.50188,0,0,1,38.47949,294.5Zm-3,0a.5.5,0,0,1,.49024-.5h0a.50126.50126,0,0,1,.5.5h0a.50126.50126,0,0,1-.5.5h0A.5.5,0,0,1,35.47949,294.5Zm-3.00976,0a.50128.50128,0,0,1,.5-.5h0a.50126.50126,0,0,1,.5.5h0a.50126.50126,0,0,1-.5.5h0A.50127.50127,0,0,1,32.46973,294.5Z" style="fill: #afafaf"/>
      <path d="M54,295a.47325.47325,0,0,1-.35059-.1499.35241.35241,0,0,1-.10937-.16016.47051.47051,0,0,1,0-.37988.35241.35241,0,0,1,.10937-.16016.49082.49082,0,0,1,.54-.10986.35459.35459,0,0,1,.16016.10986A.46675.46675,0,0,1,54.5,294.5a.42927.42927,0,0,1-.04.18994.36221.36221,0,0,1-.11035.16016.35459.35459,0,0,1-.16016.10986A.4341.4341,0,0,1,54,295Z" style="fill: #afafaf"/>
    </g>
    <g>
      <path d="M50.5,322.5a.49481.49481,0,0,1,.48957-.5H51a.50157.50157,0,0,1,.5.5h0a.50188.50188,0,0,1-.5.5h0a.4951.4951,0,0,1-.5-.49017Zm-3.00977,0a.49482.49482,0,0,1,.48957-.5h.01043a.49543.49543,0,0,1,.5.49078V322.5h0a.4957.4957,0,0,1-.49138.5h-.00862a.4951.4951,0,0,1-.5-.49017Zm-3,0a.49482.49482,0,0,1,.48957-.5h.01043a.50156.50156,0,0,1,.5.5h0a.50188.50188,0,0,1-.5.5h0a.4951.4951,0,0,1-.5-.49017Zm-3.01074,0a.49542.49542,0,0,1,.4908-.5h.0092a.49478.49478,0,0,1,.5.48953V322.5h0a.49509.49509,0,0,1-.49015.5h-.00985a.49571.49571,0,0,1-.5-.49136Zm-3,0a.49542.49542,0,0,1,.4908-.5h.0092a.501.501,0,0,1,.5.5h0a.50126.50126,0,0,1-.5.5h0a.49571.49571,0,0,1-.5-.49136Zm-3,0a.49337.49337,0,0,1,.48665-.5l.00359,0h0a.49482.49482,0,0,1,.5.48956V322.5h0a.49511.49511,0,0,1-.49017.5h-.00983a.49366.49366,0,0,1-.49027-.497Zm-3.00976,0a.49482.49482,0,0,1,.48955-.5h.01045a.49481.49481,0,0,1,.5.48956V322.5h0a.4951.4951,0,0,1-.49017.5h-.00983a.49511.49511,0,0,1-.5-.49014Z" style="fill: #afafaf"/>
      <path d="M54,323a.41094.41094,0,0,1-.19043-.04.35983.35983,0,0,1-.16016-.10986A.35241.35241,0,0,1,53.54,322.69a.47051.47051,0,0,1,0-.37988.35241.35241,0,0,1,.10937-.16016.35983.35983,0,0,1,.16016-.10986.49711.49711,0,0,1,.37988,0,.35459.35459,0,0,1,.16016.10986.36221.36221,0,0,1,.11035.16016.47051.47051,0,0,1,0,.37988.36221.36221,0,0,1-.11035.16016.35451.35451,0,0,1-.16016.10986A.40688.40688,0,0,1,54,323Z" style="fill: #afafaf"/>
    </g>
    <g>
      <path d="M50.5,350.5a.501.501,0,0,1,.5-.5h0a.49543.49543,0,0,1,.5.49078V350.5h0a.4957.4957,0,0,1-.49138.5H51A.50126.50126,0,0,1,50.5,350.5Zm-3,0a.501.501,0,0,1,.5-.5h0a.49543.49543,0,0,1,.5.49078V350.5h0a.4957.4957,0,0,1-.49138.5H48A.50126.50126,0,0,1,47.5,350.5Zm-2.99023,0a.49481.49481,0,0,1,.48954-.5h.01046a.50157.50157,0,0,1,.5.5h0a.50188.50188,0,0,1-.5.5h0a.49511.49511,0,0,1-.5-.49014Zm-3,0a.50156.50156,0,0,1,.5-.5h0a.49482.49482,0,0,1,.5.48956V350.5h0a.49511.49511,0,0,1-.49017.5h-.00983A.50188.50188,0,0,1,41.50977,350.5Zm-3,0a.50156.50156,0,0,1,.5-.5h0a.49482.49482,0,0,1,.5.48956V350.5h0a.49511.49511,0,0,1-.49017.5h-.00983A.50188.50188,0,0,1,38.50977,350.5Zm-2.99024,0a.4954.4954,0,0,1,.49078-.5h.00922a.501.501,0,0,1,.5.5h0a.50126.50126,0,0,1-.5.5h0a.49571.49571,0,0,1-.5-.49139Zm-3,0a.4954.4954,0,0,1,.49078-.5h.00922a.501.501,0,0,1,.5.5h0a.50126.50126,0,0,1-.5.5h0a.49571.49571,0,0,1-.5-.49139Zm-3,0a.50157.50157,0,0,1,.5-.5h0a.49482.49482,0,0,1,.5.48956V350.5h0a.4951.4951,0,0,1-.49017.5h-.00983A.50188.50188,0,0,1,29.51953,350.5Zm-3,0a.50157.50157,0,0,1,.5-.5h0a.49482.49482,0,0,1,.5.48956V350.5h0a.4951.4951,0,0,1-.49017.5h-.00983A.50188.50188,0,0,1,26.51953,350.5Zm-2.99023,0a.4954.4954,0,0,1,.49078-.5h.00922a.501.501,0,0,1,.5.5h0a.50128.50128,0,0,1-.5.5h0a.49571.49571,0,0,1-.5-.49139Zm-3,0a.4954.4954,0,0,1,.49078-.5h.00922a.501.501,0,0,1,.5.5h0a.50128.50128,0,0,1-.5.5h0a.49571.49571,0,0,1-.5-.49139Zm-3,0a.4954.4954,0,0,1,.49078-.5h.00922a.49482.49482,0,0,1,.5.48956V350.5h0a.49511.49511,0,0,1-.49017.5H18.0293a.49571.49571,0,0,1-.5-.49139Zm-3,0a.50157.50157,0,0,1,.5-.5h0a.504.504,0,0,1,.51071.49719l0,.00281h0a.50428.50428,0,0,1-.50846.5l-.00228,0h0A.50188.50188,0,0,1,14.5293,350.5Zm-2.98926,0a.49481.49481,0,0,1,.48957-.5H12.04a.50157.50157,0,0,1,.5.5h0a.50188.50188,0,0,1-.5.5h0a.49511.49511,0,0,1-.5-.49014V350.5Zm-3,0a.49481.49481,0,0,1,.48957-.5H9.04a.50157.50157,0,0,1,.5.5h0a.50188.50188,0,0,1-.5.5h0a.49511.49511,0,0,1-.5-.49014V350.5Zm-3,0a.501.501,0,0,1,.5-.5h0a.49543.49543,0,0,1,.5.49078V350.5h0a.4957.4957,0,0,1-.49138.5H6.04a.50125.50125,0,0,1-.5-.5Zm-2.99024,0a.49271.49271,0,0,1,.4854-.49994L3.04,350h0a.49543.49543,0,0,1,.5.49078V350.5h0a.4957.4957,0,0,1-.49138.5H3.04a.493.493,0,0,1-.49024-.49573Z" style="fill: #afafaf"/>
      <path d="M54,351a.41094.41094,0,0,1-.19043-.04.35983.35983,0,0,1-.16016-.10986A.47088.47088,0,0,1,53.5,350.5a.42789.42789,0,0,1,.04-.18994.35249.35249,0,0,1,.10937-.16016.35988.35988,0,0,1,.16016-.10986.49711.49711,0,0,1,.37988,0,.35459.35459,0,0,1,.16016.10986.36221.36221,0,0,1,.11035.16016.42789.42789,0,0,1,.04.18994.46817.46817,0,0,1-.15039.3501.35448.35448,0,0,1-.16016.10986A.40693.40693,0,0,1,54,351Z" style="fill: #afafaf"/>
    </g>
    <g>
      <g>
        <g>
          <path d="M42.51363,372.71753H41.15728L39.76189,370.4h-.01561v2.31751H38.62607v-5.74793h1.51736c1.13582,0,1.92036.503,1.92036,1.73056a1.51871,1.51871,0,0,1-1.17388,1.593ZM39.74628,369.615h.14539c.61768,0,1.05191-.183,1.05191-.88455,0-.70893-.44984-.846-1.0441-.846h-.1532Z" style="fill: #cc4c4c"/>
          <path d="M42.51367,372.918H41.15723a.19935.19935,0,0,1-.1709-.09717l-1.04-1.72705v1.624a.20047.20047,0,0,1-.2002.2002H38.626a.20047.20047,0,0,1-.2002-.2002v-5.748a.20048.20048,0,0,1,.2002-.2002h1.51757c1.36719,0,2.12012.68555,2.12012,1.93067a1.791,1.791,0,0,1-1.05273,1.71289l1.46875,2.19336a.19979.19979,0,0,1-.166.31152Zm-1.24316-.40039h.86816l-1.415-2.11328a.198.198,0,0,1-.01758-.19043.20129.20129,0,0,1,.1504-.11817,1.33312,1.33312,0,0,0,1.00683-1.3955c0-1.01563-.57812-1.53028-1.71973-1.53028H38.82617v5.34766h.71973V370.3999a.20046.20046,0,0,1,.20019-.20019.22635.22635,0,0,1,.18653.09717Zm-1.37891-2.70215h-.14551a.20046.20046,0,0,1-.20019-.2002v-1.731a.20046.20046,0,0,1,.20019-.2002h.15332c.33985,0,1.24414,0,1.24414,1.04639a1.05985,1.05985,0,0,1-1.252,1.085Zm.05469-1.731v1.33008c.58008-.01074.79687-.19971.79687-.68408C40.74316,368.25928,40.541,368.09277,39.94629,368.08447Z" style="fill: #cc4c4c"/>
        </g>
        <g>
          <path d="M45.521,367.9454v1.26511h1.78375v.9758H45.521v1.55542h1.853v.9758H44.40082V366.9696h2.97324v.9758Z" style="fill: #cc4c4c"/>
          <path d="M47.374,372.918H44.40039a.20046.20046,0,0,1-.20019-.2002v-5.748a.20047.20047,0,0,1,.20019-.2002H47.374a.20048.20048,0,0,1,.2002.2002v.97558a.20047.20047,0,0,1-.2002.2002H45.72168v.86475h1.583a.20046.20046,0,0,1,.20019.20019v.97607a.20046.20046,0,0,1-.20019.2002h-1.583v1.15479H47.374a.20047.20047,0,0,1,.2002.20019v.97607A.20047.20047,0,0,1,47.374,372.918Zm-2.77343-.40039h2.57324v-.57568H45.52148a.20047.20047,0,0,1-.20019-.2002v-1.55518a.20046.20046,0,0,1,.20019-.20019h1.583v-.57568h-1.583a.20047.20047,0,0,1-.20019-.2002v-1.26514a.20046.20046,0,0,1,.20019-.20019h1.65235v-.5752H44.60059Z" style="fill: #cc4c4c"/>
        </g>
        <g>
          <path d="M50.763,372.71753H49.64278V366.9696H51.167c1.20511,0,1.98965.48011,1.98965,1.78376a1.62989,1.62989,0,0,1-1.83645,1.81448H50.763Zm0-3.07962h.22932c.66256,0,1.02165-.1449,1.02165-.89237,0-.73916-.4274-.846-1.05288-.846H50.763Z" style="fill: #d8bb44"/>
          <path d="M50.7627,372.86768H49.64258a.15.15,0,0,1-.15039-.1496v-5.74829a.15.15,0,0,1,.15009-.1499H51.167c1.41992,0,2.13965.65039,2.13965,1.93359a1.78215,1.78215,0,0,1-1.98633,1.96435H50.9131v2a.15.15,0,0,1-.15016.14985Zm-.96973-.29981h.81933v-2a.15.15,0,0,1,.15009-.1499h.55791a1.48454,1.48454,0,0,0,1.68556-1.66455c0-1.11475-.584-1.63379-1.83888-1.63379H49.793Zm1.19922-2.78027H50.7627a.15.15,0,0,1-.1504-.1496v-1.73859a.15.15,0,0,1,.1501-.1499h.19854c.582,0,1.20312.07666,1.20312.9961C52.16406,369.61035,51.69531,369.7876,50.99219,369.7876Zm-.0791-.29981h.0791c.61426,0,.87109-.103.87109-.74218,0-.59571-.27832-.69629-.90234-.69629h-.04785Z" style="fill: #d8bb44"/>
        </g>
        <g>
          <path d="M56.30941,367.9454v1.26511h1.78375v.9758H56.30941v1.55542h1.853v.9758H55.1892V366.9696h2.97324v.9758Z" style="fill: #d8bb44"/>
          <path d="M58.16211,372.86768H55.18945a.15.15,0,0,1-.15039-.1496v-5.74829a.15.15,0,0,1,.1501-.1499h2.97295a.15.15,0,0,1,.15039.14959v.97589a.15.15,0,0,1-.1501.14991H56.46v.96533h1.63281a.15.15,0,0,1,.15039.1496v.97637a.15.15,0,0,1-.1501.14991H56.46v1.25537h1.70215a.15.15,0,0,1,.15039.1496v.97637a.15.15,0,0,1-.15016.14985Zm-2.82227-.29981h2.67188v-.67627H56.30957a.15.15,0,0,1-.15039-.1496v-1.55548a.15.15,0,0,1,.1501-.1499h1.6331v-.67627H56.30957a.15.15,0,0,1-.15039-.1496v-1.26544a.15.15,0,0,1,.1501-.1499h1.70244v-.67578H55.33984Z" style="fill: #d8bb44"/>
        </g>
        <g>
          <path d="M61.55138,371.74173H63.137v.9758H60.43116V366.9696h1.12022Z" style="fill: #10a687"/>
          <path d="M63.13672,372.86768H60.43164a.15.15,0,0,1-.15039-.1496v-5.74829a.15.15,0,0,1,.1501-.1499h1.12041a.15.15,0,0,1,.15039.14959v4.62238h1.43457a.15.15,0,0,1,.15039.1496v.97637a.15.15,0,0,1-.15015.14985Zm-2.55469-.29981h2.4043v-.67627H61.55176a.15.15,0,0,1-.15039-.1496v-4.62237H60.582Z" style="fill: #10a687"/>
        </g>
        <g>
          <path d="M68.81519,371.74173v.9758H64.64464l2.53121-4.77213H65.033v-.9758h3.9188l-2.52341,4.77213Z" style="fill: #10a687"/>
          <path d="M68.81543,372.86768h-4.1709a.15012.15012,0,0,1-.1289-.07276.15228.15228,0,0,1-.0039-.14746l2.415-4.55225H65.0332a.15.15,0,0,1-.15039-.14959v-.97589a.15.15,0,0,1,.1501-.14991H68.9522a.15074.15074,0,0,1,.1289.07227.15326.15326,0,0,1,.00391.14795l-2.40723,4.55176h2.1377a.15.15,0,0,1,.15039.14959v.97638a.15.15,0,0,1-.1501.14991Zm-3.92188-.29981H68.665v-.67627H66.42871a.15077.15077,0,0,1-.12891-.07226.15327.15327,0,0,1-.00389-.148l2.40722-4.55176H65.18359v.67578h1.99219a.15013.15013,0,0,1,.12891.07275.15234.15234,0,0,1,.0039.14746Z" style="fill: #10a687"/>
        </g>
        <g>
          <path d="M72.04311,367.9454v1.26511h1.78376v.9758H72.04311v1.55542h1.853v.9758H70.9229V366.9696h2.97325v.9758Z" style="fill: #098eb7"/>
          <path d="M73.89648,372.86768H70.92285a.15.15,0,0,1-.15039-.1496v-5.74829a.15.15,0,0,1,.1501-.1499h2.97392a.15.15,0,0,1,.1504.14968v.9758a.15.15,0,0,1-.1501.14991H72.19336v.96533h1.63379a.15.15,0,0,1,.15039.1496v.97637a.15.15,0,0,1-.1501.14991H72.19336v1.25537h1.70312a.15.15,0,0,1,.1504.1496v.97637a.15007.15007,0,0,1-.15027.14985Zm-2.82325-.29981h2.67286v-.67627H72.043a.15.15,0,0,1-.15039-.1496v-1.55548a.15.15,0,0,1,.1501-.1499h1.63408v-.67627H72.043a.15.15,0,0,1-.15039-.1496v-1.26544a.15.15,0,0,1,.1501-.1499h1.70341v-.67578H71.07324Z" style="fill: #098eb7"/>
        </g>
        <g>
          <path d="M76.16487,366.81689h.808l3.02691,4.01786h.01464v-3.86511H81.1356v5.86209h-.808l-3.02691-4.01737h-.01561v3.90317H76.16487Z" style="fill: #098eb7"/>
          <path d="M81.13574,372.98145h-.80859a.15089.15089,0,0,1-.12012-.05957l-2.77148-3.67969v3.47558a.15.15,0,0,1-.1501.14991H76.165a.15.15,0,0,1-.15039-.1496v-5.90119a.15.15,0,0,1,.1501-.1499h.80791a.15077.15077,0,0,1,.12011.05957l2.77149,3.67969v-3.43652a.15.15,0,0,1,.1501-.14991H81.1357a.15.15,0,0,1,.15039.1496v5.86212a.15.15,0,0,1-.1501.14991Zm-.7334-.29981h.583v-5.562H80.165V370.835a.15.15,0,0,1-.1501.1499h-.00029a.18052.18052,0,0,1-.13477-.05957l-2.98242-3.95849h-.582v5.60107h.81935v-3.75342a.15.15,0,0,1,.1501-.1499h.00029a.18271.18271,0,0,1,.13574.05957Z" style="fill: #098eb7"/>
        </g>
      </g>
      <g>
        <rect x="38.48689" y="364.82104" width="42.88704" height="0.89929" style="fill: #e6e6e6"/>
        <path d="M81.374,365.87012H38.4873a.15.15,0,0,1-.15039-.1496v-.89972a.15.15,0,0,1,.1501-.1499H81.374a.15.15,0,0,1,.15039.1496v.89971a.15.15,0,0,1-.1501.14991Zm-42.73632-.29981H81.22363v-.59961H38.6377Z" style="fill: #e6e6e6"/>
      </g>
      <g>
        <rect x="38.62607" y="374.27966" width="42.88704" height="0.89929" style="fill: #e6e6e6"/>
        <path d="M81.5127,375.3291H38.626a.15.15,0,0,1-.15039-.1496v-.89971a.15.15,0,0,1,.1501-.14991h42.887a.15.15,0,0,1,.15039.1496v.89972a.15.15,0,0,1-.1501.1499Zm-42.73633-.2998H81.3623v-.59961H38.77637Z" style="fill: #e6e6e6"/>
      </g>
    </g>
    <g>
      <g>
        <path d="M95.14063,201.47754a.50016.50016,0,0,1-.44043-.26318l-.56836-1.05567a.50006.50006,0,0,1,.88086-.47363l.56835,1.05566a.49961.49961,0,0,1-.44042.73682Z" style="fill: url(#New_Pattern_Swatch_1)"/>
        <path d="M100.21973,195.80127a.50416.50416,0,0,1-.19532-.03955l-1.10351-.46729a.50016.50016,0,0,1,.39062-.92088l1.10352.46729a.50021.50021,0,0,1-.19531.96044Z" style="fill: url(#New_Pattern_Swatch_1-3)"/>
        <path d="M99.82813,188.3125a.5.5,0,0,1-.12011-.98535l1.16307-.28906a.5.5,0,0,1,.2445.96965l-.00425.001-1.1631.28906A.51061.51061,0,0,1,99.82813,188.3125Z" style="fill: url(#New_Pattern_Swatch_1-5)"/>
        <path d="M96.14941,182.62549a.49971.49971,0,0,1-.39453-.80713l.73632-.9458a.5.5,0,0,1,.79412.60776l-.005.0065-.73632.9458A.4998.4998,0,0,1,96.14941,182.62549Z" style="fill: url(#New_Pattern_Swatch_1-7)"/>
        <path d="M89.52539,180.34326h-.001a.49972.49972,0,0,1-.499-.50041v-.0006l.00293-1.19921a.50045.50045,0,0,1,.5-.499h.001a.49971.49971,0,0,1,.499.50041v.0006l-.00293,1.19922A.50043.50043,0,0,1,89.52539,180.34326Z" style="fill: url(#New_Pattern_Swatch_1-9)"/>
        <path d="M82.8877,182.59668a.49873.49873,0,0,1-.3955-.19434l-.73243-.9492a.49986.49986,0,1,1,.78732-.6161l.00368.00477.73243.94922a.49964.49964,0,0,1-.3955.80566Z" style="fill: url(#New_Pattern_Swatch_1-11)"/>
        <path d="M79.18359,188.2666a.51006.51006,0,0,1-.123-.01514l-1.16211-.29492a.50023.50023,0,1,1,.2461-.96972l1.16211.29492a.50016.50016,0,0,1-.12305.98486Z" style="fill: url(#New_Pattern_Swatch_1-13)"/>
        <path d="M78.75391,195.75684a.50009.50009,0,0,1-.19239-.96143l1.10645-.46191a.49992.49992,0,1,1,.38476.92285h0l-1.10644.46191A.49415.49415,0,0,1,78.75391,195.75684Z" style="fill: url(#New_Pattern_Swatch_1-15)"/>
        <path d="M83.82324,201.439a.49962.49962,0,0,1-.44043-.73682l.56836-1.05615a.50006.50006,0,1,1,.88086.47363l-.56836,1.05615A.5001.5001,0,0,1,83.82324,201.439Z" style="fill: url(#New_Pattern_Swatch_1)"/>
      </g>
      <g>
        <path d="M94.76114,199.73254a10.62463,10.62463,0,1,0-10.54511-.01307" style="fill: #313131"/>
        <g style="clip-path: url(#clip-path)">
          <g>
            <rect x="76.66388" y="177.17442" width="24.63887" height="26.06439" style="fill: none"/>
            <rect x="76.66388" y="177.17442" width="24.63887" height="26.06439" style="fill: #cc4c4c"/>
          </g>
        </g>
      </g>
    </g>
    <g style="clip-path: url(#clip-path-2)">
      <g>
        <g>
          <rect x="76.66388" y="151.11003" width="24.63887" height="26.06439" style="fill: none"/>
          <rect x="76.66388" y="151.11003" width="24.63887" height="26.06439" style="fill: #cc4c4c"/>
        </g>
        <g>
          <rect x="76.66388" y="177.17442" width="24.63887" height="26.06439" style="fill: none"/>
          <rect x="76.66388" y="177.17442" width="24.63887" height="26.06439" style="fill: #cc4c4c"/>
        </g>
      </g>
    </g>
  </g>
</svg>
